<svg width="135" height="135" viewBox="0 0 135 135" fill="none" xmlns="http://www.w3.org/2000/svg">
<g clip-path="url(#clip0_50_418)">
<path d="M103.275 31.725H31.725V103.95H103.275V31.725Z" fill="white" fill-opacity="0.3"/>
<path d="M76.0804 67.3826L103.275 31.725H99.2503L71.937 67.3826H76.0804Z" fill="white"/>
<path d="M86.3895 83.0151C87.2727 85.4684 87.9798 88.0415 88.8239 90.5342C89.3731 92.058 90.2185 95.1845 91.2191 96.4309H84.4847C84.4847 94.4916 83.7385 92.7115 83.2284 90.8708C82.7966 89.585 82.4822 88.2781 82.0112 86.9922L81.8939 86.4979L81.7765 86.0825L81.6591 85.7459L81.5808 85.4093L81.5026 85.2121L81.4634 85.0938V85.0544H70.7421L69.0344 87.4683L69.0736 87.5077L69.1127 87.7063L69.2301 88.0429L69.3475 88.4583L69.504 88.9527C69.8184 89.9216 70.1133 90.9314 70.4459 91.9017C71.153 94.1579 71.153 94.2959 72.3506 96.4337H65.8901C65.7532 95.069 65.4779 94.2367 65.0852 92.9115C64.0245 94.0593 63.2587 94.9691 62.6117 96.4337H57.585C57.3293 94.9296 57.2119 94.2367 56.6431 92.7537C55.5238 94.2973 55.092 94.6142 54.2479 96.4337H49.2603C51.4795 94.3959 53.2655 91.7834 55.1115 89.409L53.8552 85.0755H43.2121V85.1149L42.976 85.353L42.8194 85.591L42.6238 85.8684L42.3876 86.205L42.1123 86.6205L41.7783 86.9965C40.856 88.2823 39.854 89.5089 38.9317 90.7962C37.5566 92.5974 35.9467 94.4367 34.907 96.4351H31.725V94.3973L31.8424 94.279H31.8815V94.2395L32.038 94.0818L32.1163 93.9635C32.3916 93.6663 32.5872 93.31 32.8821 93.0143C33.6479 92.0651 34.3746 91.1144 35.1208 90.1455C37.2212 87.4739 39.2643 84.7826 41.2864 82.0518C44.0939 78.0944 47.9817 73.9976 49.8864 69.5852H55.3645C55.4818 72.5132 56.3259 74.0173 57.0722 76.7875C57.5431 78.2916 57.9749 79.7957 58.4473 81.2786L58.6038 81.773L58.8399 82.663L58.9573 82.9996L59.0356 83.3362L59.1138 83.5742L59.1921 83.7728L59.2312 83.8911V83.9305L61.0968 81.5561C60.0362 78.8648 58.8385 73.0864 56.9534 69.5641H63.3747C63.316 71.0091 63.8652 72.0372 64.1796 73.4032C64.5528 74.6496 64.8476 75.9354 65.2403 77.1635C66.0648 76.0551 66.9676 74.9665 67.7935 73.8595C68.7354 72.5146 70.267 71.3274 70.3858 69.5655H75.7464C72.6049 72.5146 69.6004 77.0846 66.8125 80.4886C67.1269 81.4575 67.3617 82.4673 67.6565 83.4376C69.3642 81.2012 71.0929 78.9662 72.7614 76.6903C74.3322 74.4933 76.4927 72.0597 77.5519 69.5669H82.7938V69.8049L82.8329 70.419L82.9503 71.0724L83.0286 71.5668L86.3867 83.0236L86.3895 83.0151ZM78.4379 74.7045C77.0628 77.1776 74.9038 79.652 73.1555 81.9068H80.3021C79.9486 80.759 79.5755 79.5717 79.2023 78.4239L79.0458 77.8508L78.8893 77.3564L78.7719 76.941L78.6937 76.6044L78.5763 75.7932V74.7243L78.5372 74.6454V74.606L78.4393 74.7045H78.4379ZM51.0072 74.7045C50.2609 76.0495 49.2003 77.4747 48.2388 78.662C47.7287 79.3746 47.139 80.0478 46.6094 80.7392L46.3732 81.0758L46.1762 81.3533L45.9791 81.5504L45.8617 81.7082L45.7443 81.8265V81.8659H52.891C52.5178 80.7576 52.1447 79.5112 51.7911 78.3831L51.6346 77.8099L51.4781 77.3156L51.3607 76.9001L51.2825 76.5635L51.1651 75.7523L51.126 75.0594V74.6045L51.0868 74.5651L51.0086 74.7031L51.0072 74.7045ZM61.7676 91.5243L63.7115 88.7935C63.2405 87.6063 62.8283 86.3993 62.4552 85.1924L60.5504 87.6852L61.7676 91.5243Z" fill="white"/>
</g>
<defs>
<clipPath id="clip0_50_418">
<rect width="71.55" height="72.225" fill="white" transform="translate(31.725 31.725)"/>
</clipPath>
</defs>
</svg>
