<svg width="136" height="135" viewBox="0 0 136 135" fill="none" xmlns="http://www.w3.org/2000/svg">
<path fill-rule="evenodd" clip-rule="evenodd" d="M38.1925 60.6045H39.5183C40.933 60.6045 41.2626 61.0199 41.2626 61.7735C41.2626 62.483 40.8442 62.9425 39.5332 62.9425H38.1925V60.6045V60.6045ZM33.6633 69.3023H41.5922C43.918 69.3023 44.6179 69.067 45.3179 68.4752C45.7956 68.0744 46.1067 67.3797 46.1067 66.5525C46.1067 64.7181 44.6475 63.9939 43.1254 63.9057V63.8763C44.5401 63.5344 45.6438 62.8543 45.6438 61.4059C45.6438 59.6009 44.2735 58.623 41.0071 58.623H33.6633V69.306V69.3023ZM38.1925 64.8357H39.5332C41.0997 64.8357 41.6626 65.2365 41.6626 66.1224C41.6626 67.0084 41.096 67.4091 39.5332 67.4091H38.1925V64.8357Z" fill="white"/>
<path fill-rule="evenodd" clip-rule="evenodd" d="M61.4647 63.9608C61.4647 60.7662 59.5278 58.34 54.2653 58.34C51.4914 58.34 50.1656 58.7995 49.1398 59.5237C47.9028 60.3949 47.0696 61.8911 47.0696 63.9608C47.0696 67.1554 49.0065 69.5817 54.269 69.5817C57.0428 69.5817 58.9056 68.8428 60.0648 67.7326C60.9573 66.8907 61.4647 65.6041 61.4647 63.9608V63.9608ZM56.8428 63.9608C56.8428 66.1518 55.754 67.1554 54.2653 67.1554C52.7765 67.1554 51.6877 66.1481 51.6877 63.9608C51.6877 61.7735 52.7765 60.7662 54.2653 60.7662C55.754 60.7662 56.8428 61.7735 56.8428 63.9608Z" fill="white"/>
<path d="M67.1717 58.6194H62.6424V69.3023H67.1717V58.6194Z" fill="white"/>
<path fill-rule="evenodd" clip-rule="evenodd" d="M68.6937 69.3023H78.1892V66.6996H73.223V58.6194H68.6937V69.3023Z" fill="white"/>
<path fill-rule="evenodd" clip-rule="evenodd" d="M79.0336 69.3023H89.4068V67.0525H83.4147V65.0857H88.9735V62.8359H83.4147V60.8692H89.3476V58.6194H79.0336V69.3023Z" fill="white"/>
<path fill-rule="evenodd" clip-rule="evenodd" d="M90.7178 69.3023H95.2471V65.4276H96.6173C98.1691 65.4276 98.3616 65.6041 98.569 66.9201L98.9431 69.3023H103.472L102.891 65.7217C102.713 64.6409 101.847 64.2733 100.806 64.2439V64.0968C102.147 63.8616 103.132 62.9719 103.132 61.5676C103.132 59.2002 101.313 58.623 98.3765 58.623H90.7178V69.306V69.3023ZM95.2471 60.7809H96.9025C98.0061 60.7809 98.6912 61.1081 98.6912 62.0529C98.6912 63.0602 97.9469 63.3543 96.9766 63.3543H95.2471V60.7809V60.7809Z" fill="white"/>
<path fill-rule="evenodd" clip-rule="evenodd" d="M36.9518 81.0329H41.4811V77.1583H42.8514C44.4031 77.1583 44.5957 77.3347 44.803 78.6508L45.1771 81.0329H49.7063L49.1249 77.4524C48.9471 76.3716 48.0805 76.0039 47.0399 75.9745V75.8275C48.3805 75.5922 49.3656 74.7026 49.3656 73.2983C49.3656 70.9308 47.5473 70.3537 44.6105 70.3537H36.9518V81.0366V81.0329ZM41.4811 72.5116H43.1365C44.2401 72.5116 44.9253 72.8388 44.9253 73.7835C44.9253 74.7908 44.1809 75.0849 43.2106 75.0849H41.4811V72.5116V72.5116Z" fill="white"/>
<path fill-rule="evenodd" clip-rule="evenodd" d="M64.6273 75.6951C64.6273 72.5006 62.6905 70.0743 57.4279 70.0743C54.6541 70.0743 53.3283 70.5338 52.3024 71.258C51.0655 72.1293 50.2322 73.6255 50.2322 75.6951C50.2322 78.8897 52.1691 81.316 57.4316 81.316C60.2055 81.316 62.0683 80.5771 63.2275 79.4669C64.12 78.6251 64.6273 77.3384 64.6273 75.6951ZM60.0055 75.6951C60.0055 77.8861 58.9167 78.8897 57.4279 78.8897C55.9392 78.8897 54.8504 77.8825 54.8504 75.6951C54.8504 73.5078 55.9392 72.5006 57.4279 72.5006C58.9167 72.5006 60.0055 73.5078 60.0055 75.6951Z" fill="white"/>
<path fill-rule="evenodd" clip-rule="evenodd" d="M80.0297 75.6951C80.0297 72.5006 78.0929 70.0743 72.8303 70.0743C70.0565 70.0743 68.7307 70.5338 67.7048 71.258C66.4679 72.1293 65.6346 73.6255 65.6346 75.6951C65.6346 78.8897 67.5715 81.316 72.834 81.316C75.6079 81.316 77.4707 80.5771 78.6299 79.4669C79.5224 78.6251 80.0297 77.3384 80.0297 75.6951ZM75.4079 75.6951C75.4079 77.8861 74.3191 78.8897 72.8303 78.8897C71.3416 78.8897 70.2528 77.8825 70.2528 75.6951C70.2528 73.5078 71.3416 72.5006 72.8303 72.5006C74.3191 72.5006 75.4079 73.5078 75.4079 75.6951Z" fill="white"/>
<path fill-rule="evenodd" clip-rule="evenodd" d="M81.1592 81.0329H85.0071V73.0005H85.0515L87.8217 81.0329H92.2028L95.1544 73.0005H95.184V81.0329H99.3874V70.3537H92.4879L90.3103 77.5149H90.2807L88.029 70.3537H81.1592V81.0329Z" fill="white"/>
<path fill-rule="evenodd" clip-rule="evenodd" d="M68.3196 28.2726C79.3076 28.2726 89.2586 32.6914 96.4617 39.8305C103.665 46.9733 108.12 56.8401 108.12 67.7362C108.12 78.6324 103.665 88.4992 96.4617 95.642C89.2586 102.785 79.3113 107.2 68.3196 107.2C57.3279 107.2 47.3806 102.781 40.1775 95.642C32.9744 88.4992 28.5192 78.6324 28.5192 67.7362C28.5192 56.8401 32.9744 46.9733 40.1775 39.8305C47.3806 32.6914 57.3279 28.2726 68.3196 28.2726ZM95.8248 40.4628C88.7846 33.4854 79.0595 29.1659 68.3196 29.1659C57.5798 29.1659 47.851 33.4854 40.8108 40.4628C33.7743 47.4438 29.4192 57.0827 29.4192 67.7362C29.4192 78.3898 33.7706 88.0287 40.8108 95.0097C47.851 101.991 57.5761 106.307 68.3159 106.307C79.0558 106.307 88.7846 101.991 95.821 95.0097C102.857 88.0324 107.213 78.3898 107.213 67.7362C107.213 57.0827 102.861 47.4438 95.821 40.4628H95.8248Z" fill="white"/>
</svg>
