<svg width="135" height="135" viewBox="0 0 135 135" fill="none" xmlns="http://www.w3.org/2000/svg">
<path fill-rule="evenodd" clip-rule="evenodd" d="M56.1116 81.4869C50.3395 81.4869 45.6608 86.1648 45.6608 91.9377L45.6648 102.524L32.9885 102.52C29.2475 102.52 26.2132 99.5065 26.2132 95.7654V93.3803C26.2132 89.6384 29.2361 86.6487 32.978 86.6487L43.4831 86.6519V82.3257L32.9634 82.3322C26.8534 82.3306 21.9105 87.2573 21.9105 93.3673V95.776C21.9105 101.886 26.8631 106.839 32.9723 106.839L49.9943 106.842L49.9789 91.9385C49.9789 90.3127 50.624 88.7534 51.774 87.6042C52.9233 86.455 54.4826 85.809 56.1083 85.809H56.9966C58.6224 85.809 60.1817 86.4541 61.3309 87.6042C62.4801 88.7534 63.1261 90.3127 63.1261 91.9385L63.1658 106.848L67.4895 106.851L67.4466 91.9385C67.4466 86.1664 62.7678 81.4877 56.9958 81.4877H56.11V81.4861L56.1116 81.4869ZM94.0311 96.165H74.3516C74.3516 99.6572 77.1785 102.508 80.6708 102.508L105.754 102.523C106.49 102.758 107.291 102.66 107.948 102.254C108.605 101.848 109.051 101.175 109.17 100.412C109.289 99.6491 109.068 98.8719 108.567 98.286C108.064 97.6992 107.331 97.362 106.558 97.362L100.323 95.3683C97.5817 94.4671 95.729 91.9069 95.7298 89.0217C95.7298 87.2508 96.4333 85.5529 97.6846 84.3008C98.9367 83.0486 100.635 82.3452 102.405 82.3452L111.491 82.333V86.6487L102.405 86.6673C101.255 86.6689 100.275 87.5013 100.086 88.6359C99.8979 89.7705 100.557 90.8752 101.644 91.2496L108.096 93.3146C110.871 94.3042 112.725 96.9333 112.725 99.8801C112.725 103.73 109.604 106.851 105.756 106.851L80.6724 106.867C74.7739 106.867 69.9922 102.086 69.9922 96.1869V92.5933C69.9922 86.459 74.9643 81.4869 81.0987 81.4869H82.9262C89.0606 81.4869 94.0335 86.459 94.0335 92.5933L94.0303 96.1674L94.0311 96.165ZM89.666 92.3923C89.559 88.7477 86.5733 85.8487 82.9262 85.8479H81.0954C77.4492 85.8479 74.4627 88.7469 74.3557 92.3923H89.6652H89.666ZM51.5844 54.6439V68.4945C51.5844 68.4945 50.1337 65.5947 50.1823 61.5757C50.2301 57.5558 51.5844 54.6439 51.5844 54.6439V54.6439ZM51.9564 53.831L53.1761 51.7311V71.3392C53.1761 71.3392 51.9564 69.5449 51.9904 69.3414L51.9564 53.831V53.831ZM54.8684 73.4731L53.7848 72.2202L53.7175 50.9531L54.8343 49.6823L54.8684 73.4731ZM55.5686 49.0112L56.4714 48.1529L56.5176 74.9741L55.5694 74.0704V49.0112H55.5686ZM57.3297 47.567L58.1872 46.9786L58.2552 76.2165L57.3297 75.5844V47.567V47.567ZM59.09 46.4372C59.09 46.4372 59.6776 46.0304 59.8575 46.0304L59.9256 77.1639L59.09 76.7352V46.4364V46.4372ZM60.8965 45.5798L61.5287 45.2637L61.5967 77.8642L60.8965 77.6162V45.5789V45.5798ZM63.9673 70.2791C63.9673 70.2791 63.3797 69.2409 63.1998 68.7433V78.3164L62.703 78.2037V30.5653C62.703 30.5653 62.7768 28.7539 63.3692 28.7539C63.9616 28.7539 64.0127 30.5313 64.0127 30.5313L63.9681 70.2783L63.9673 70.2791ZM64.486 44.5529L64.9625 44.4597C64.9625 44.4597 65.1344 47.832 65.6093 49.3443L65.5866 72.4398L64.9609 71.7631L64.9107 78.6714L64.4366 78.6033L64.486 44.5529V44.5529ZM67.1783 73.7446L66.5689 73.2713L66.5518 78.8245L66.0947 78.7905L66.1288 72.8815L66.282 73.0339L66.2933 51.7433L66.1296 51.2238L66.1134 44.3495L66.5364 44.2992V52.326L67.1459 53.6462L67.1799 73.7454L67.1783 73.7446ZM68.8203 74.6929L68.1938 74.3711L68.1776 78.8416L67.7035 78.8578V74.0656L67.975 74.2349L68.009 55.2201L67.7043 54.7452V44.2976C67.7043 44.2976 67.7886 44.2636 68.1784 44.2976V55.49L68.8049 56.4212L68.8211 74.692L68.8203 74.6929ZM70.5142 75.2521L69.8366 75.0486V78.6892L69.3285 78.7394V74.8793L69.7013 75.0146L69.724 57.6361L69.2944 57.1628V44.3827C69.2944 44.3827 69.7467 44.3827 69.8366 44.4273V57.7925L70.4906 58.4927L70.5133 75.2504L70.5142 75.2521ZM72.1845 75.5171L71.507 75.4725V78.3618L70.9202 78.4971L70.9032 75.3364L71.3943 75.4044L71.3716 59.3072L70.8983 58.9231V44.6307L71.5078 44.7434L71.5305 59.3737L72.1845 59.8024V75.5155V75.5171ZM73.8548 75.5625L73.2008 75.5844V77.8868L72.4998 78.1348V75.539L73.0784 75.5657L73.0873 60.2765L72.4998 60.0058V45.0149C72.4998 45.0149 72.9974 45.1275 73.2008 45.2629L73.2454 60.2765L73.8321 60.5253L73.8548 75.5617V75.5625ZM75.6378 75.2691L74.8476 75.4279V77.2109L74.1255 77.5951V75.4952L74.8476 75.4271V74.8177L74.8266 60.7531C74.8266 60.7531 74.1936 60.6404 74.1255 60.5942C74.0575 60.5488 74.1255 45.6024 74.1255 45.6024L74.8476 45.9412L74.8266 60.7741C74.8266 60.7741 75.4344 60.8649 75.6378 60.8868V75.2691V75.2691ZM75.7116 75.2188L76.5415 74.9473V76.2846L75.7116 76.8098V75.2188ZM77.4225 74.6256L78.2524 74.2025V75.1167L77.2531 75.8283L77.2693 74.7107L76.5917 74.9303L76.5755 60.9103L75.6378 60.8876L75.6605 46.3481L76.5755 46.8903V60.809C76.5755 60.809 76.7109 60.8771 77.219 60.7409L77.2531 47.2963C77.2531 47.2963 78.2353 47.9398 78.2353 48.0751L78.2694 60.5034L77.3892 60.7409L77.4233 74.6256H77.4225ZM82.8744 69.4095C82.8744 69.4095 81.6044 71.8141 80.3506 73.1003L80.3668 72.6262L79.9778 72.9139L79.9948 59.5544L80.3676 59.2497V50.0721C80.3676 50.0721 81.5193 51.3753 81.6555 51.7822V51.68C81.6555 51.68 82.8752 53.5433 82.8752 53.7127V69.4087L82.8744 69.4095ZM79.9616 72.9658L79.9778 73.525L78.8262 74.6256V73.863L78.3196 74.1507L78.3358 60.4864L78.8254 60.2668L78.8083 48.5493C78.8083 48.5493 79.8246 49.4294 79.96 49.6328L79.977 59.6063L79.1657 60.1144V73.559C79.1657 73.559 79.7744 73.1181 79.9616 72.9658V72.9658Z" fill="white"/>
<path fill-rule="evenodd" clip-rule="evenodd" d="M81.6733 71.0004C81.6733 71.0004 81.3345 71.6099 81.0298 71.8133V58.5381C81.0298 58.5381 81.4188 58.1142 81.6563 57.5898L81.6725 71.0004H81.6733ZM81.6903 51.9013V57.4715C81.6903 57.4715 82.3646 56.3085 82.3573 54.7152C82.3508 53.1202 81.6903 51.9013 81.6903 51.9013ZM83.2934 54.6098V68.5618C83.2934 68.5618 84.7603 66.0785 84.7603 61.5181C84.7603 56.9585 83.2934 54.6098 83.2934 54.6098V54.6098Z" fill="white"/>
</svg>
