<svg width="136" height="135" viewBox="0 0 136 135" fill="none" xmlns="http://www.w3.org/2000/svg">
<g filter="url(#filter0_d_50_416)">
<g clip-path="url(#clip0_50_416)">
<path fill-rule="evenodd" clip-rule="evenodd" d="M34.0496 75.6699H23.6784C23.4262 75.6699 23.048 75.828 22.8588 76.0494L20.7783 78.1367C20.5892 78.3264 20.4 78.7059 20.4 78.9273V86.5175C20.4 86.7389 20.5576 87.1184 20.7783 87.3082L22.8588 89.3955C23.048 89.5852 23.4262 89.775 23.6784 89.775H34.0496C34.3333 89.775 34.5539 89.5536 34.5539 89.269V86.644C34.5539 86.3594 34.3333 86.138 34.0496 86.138H24.1513V79.3701H34.0811C34.3648 79.3701 34.5855 79.1487 34.5855 78.8641V76.2391C34.5855 75.8912 34.3333 75.6699 34.0496 75.6699" fill="white"/>
<path fill-rule="evenodd" clip-rule="evenodd" d="M48.5502 76.0178C48.3611 75.828 47.9513 75.6382 47.6675 75.6382H39.3454C39.0617 75.6382 38.6834 75.7964 38.4628 76.0178L36.3822 78.1051C36.1931 78.2948 36.004 78.706 36.004 78.9906V86.4227C36.004 86.7073 36.1616 87.0868 36.3822 87.3082L38.4628 89.3955C38.6519 89.5853 39.0617 89.7434 39.3454 89.7434H47.6675C47.9513 89.7434 48.3295 89.5853 48.5502 89.3955L50.6307 87.3082C50.8199 87.1184 51.009 86.7073 51.009 86.4227V78.9906C51.009 78.706 50.8514 78.3264 50.6307 78.1051L48.5502 76.0178V76.0178ZM47.2577 86.0748H39.7552V79.3068H47.2262V86.0748H47.2577Z" fill="white"/>
<path fill-rule="evenodd" clip-rule="evenodd" d="M66.5184 75.6699H63.8074C63.5237 75.6699 63.303 75.8913 63.303 76.1759V86.0748H56.6201V76.1443C56.6201 75.8596 56.3995 75.6382 56.1158 75.6382H53.4048C53.1211 75.6382 52.9004 75.8596 52.9004 76.1443V86.391C52.9004 86.6757 53.058 87.0552 53.2787 87.2766L55.3592 89.3639C55.5483 89.5536 55.9581 89.7118 56.2418 89.7118H63.7444C64.0281 89.7118 64.4063 89.5536 64.627 89.3639L66.7075 87.2766C66.8967 87.0868 67.0543 86.6757 67.0543 86.391V76.1443C67.0228 75.8913 66.8021 75.6699 66.5184 75.6699" fill="white"/>
<path fill-rule="evenodd" clip-rule="evenodd" d="M79.5691 85.126C79.7582 85.0628 79.9158 84.9679 80.0419 84.8414L82.1225 82.7541C82.3116 82.5643 82.5007 82.1532 82.5007 81.8685V78.9906C82.5007 78.706 82.3431 78.3264 82.1225 78.1051L80.0419 76.0178C79.8528 75.828 79.443 75.6382 79.1593 75.6382H69.3556C69.0719 75.6382 68.8512 75.8596 68.8512 76.1443V89.2374C68.8512 89.522 69.0719 89.7434 69.3556 89.7434H72.0666C72.3503 89.7434 72.5709 89.522 72.5709 89.2374V85.1893H75.3134L78.1505 89.3323C78.3081 89.5536 78.6864 89.7434 78.9701 89.7434H82.2485C82.5323 89.7434 82.6268 89.5536 82.4692 89.3323L79.5691 85.126V85.126ZM72.6025 79.3385H78.7495V81.6788H72.6025V79.3385Z" fill="white"/>
<path fill-rule="evenodd" clip-rule="evenodd" d="M110.777 89.3323L107.877 85.126C108.066 85.0628 108.224 84.9679 108.35 84.8414L110.43 82.7541C110.619 82.5643 110.777 82.1532 110.777 81.8685V78.9906C110.777 78.706 110.619 78.3264 110.43 78.1051L108.35 76.0178C108.161 75.828 107.751 75.6382 107.467 75.6382H97.6633C97.3796 75.6382 97.1589 75.8596 97.1589 76.1443V89.2374C97.1589 89.522 97.3796 89.7434 97.6633 89.7434H100.374C100.658 89.7434 100.879 89.522 100.879 89.2374V85.1893H103.621L106.458 89.3323C106.616 89.5536 106.994 89.7434 107.278 89.7434H110.556C110.84 89.7434 110.966 89.5536 110.777 89.3323M100.91 79.3385H107.057V81.6788H100.91V79.3385Z" fill="white"/>
<path fill-rule="evenodd" clip-rule="evenodd" d="M94.9839 75.6699H84.4867C84.203 75.6699 83.9823 75.8912 83.9823 76.1759V78.8324C83.9823 79.1171 84.203 79.3385 84.4867 79.3385H87.8597V86.0748H84.4867C84.203 86.0748 83.9823 86.2962 83.9823 86.5808V89.2374C83.9823 89.522 84.203 89.7434 84.4867 89.7434H94.9839C95.2676 89.7434 95.4883 89.522 95.4883 89.2374V86.5808C95.4883 86.2962 95.2676 86.0748 94.9839 86.0748H91.6109V79.3068H94.9839C95.2676 79.3068 95.4883 79.0855 95.4883 78.8008V76.1442C95.5198 75.8912 95.2676 75.6699 94.9839 75.6699" fill="white"/>
<path fill-rule="evenodd" clip-rule="evenodd" d="M20.4 63.2409C20.4 63.9367 20.7153 64.5059 21.0305 64.7906L26.6416 70.167C27.0829 70.5781 27.6504 70.8311 28.2808 70.8311H46.1229C46.8164 70.8311 47.2263 70.2618 47.2263 69.7242V63.7153C47.2263 63.1144 46.7219 62.6084 46.1229 62.6084H28.7852V52.7411H46.1545C46.7534 52.7411 47.2578 52.2667 47.2578 51.6342V45.6569C47.2578 45.1193 46.848 44.55 46.1545 44.55H28.3123C27.6504 44.55 27.0829 44.803 26.6731 45.2141L21.062 50.5905C20.7468 50.9068 20.4315 51.4444 20.4315 52.1402V63.2409H20.4Z" fill="white" fill-opacity="0.5"/>
<path fill-rule="evenodd" clip-rule="evenodd" d="M114.56 70.8627L115.6 71.9064V74.6578L114.56 75.7015H111.817L110.777 74.6578V71.9064L111.817 70.8627H114.56ZM114.308 75.0373L114.97 74.3732V72.1594L114.308 71.4952H112.101L111.439 72.1594V74.3732L112.101 75.0373H114.308Z" fill="white"/>
<path fill-rule="evenodd" clip-rule="evenodd" d="M114.308 74.2467L113.866 73.6142C113.898 73.6142 113.929 73.5825 113.929 73.5825L114.245 73.2663C114.276 73.2347 114.308 73.1714 114.308 73.1398V72.697C114.308 72.6654 114.276 72.6021 114.245 72.5705L113.929 72.2543C113.898 72.2226 113.835 72.191 113.803 72.191H112.322C112.29 72.191 112.259 72.2226 112.259 72.2543V74.2151C112.259 74.2467 112.29 74.2783 112.322 74.2783H112.731C112.763 74.2783 112.794 74.2467 112.794 74.2151V73.6142H113.204L113.646 74.2467C113.677 74.2783 113.709 74.3099 113.772 74.3099H114.276C114.308 74.3099 114.308 74.2783 114.308 74.2467M112.794 72.7603H113.709V73.1082H112.794V72.7603Z" fill="white"/>
</g>
</g>
<defs>
<filter id="filter0_d_50_416" x="-4" y="0" width="144" height="143" filterUnits="userSpaceOnUse" color-interpolation-filters="sRGB">
<feFlood flood-opacity="0" result="BackgroundImageFix"/>
<feColorMatrix in="SourceAlpha" type="matrix" values="0 0 0 0 0 0 0 0 0 0 0 0 0 0 0 0 0 0 127 0" result="hardAlpha"/>
<feOffset dy="4"/>
<feGaussianBlur stdDeviation="2"/>
<feComposite in2="hardAlpha" operator="out"/>
<feColorMatrix type="matrix" values="0 0 0 0 0 0 0 0 0 0 0 0 0 0 0 0 0 0 0.25 0"/>
<feBlend mode="normal" in2="BackgroundImageFix" result="effect1_dropShadow_50_416"/>
<feBlend mode="normal" in="SourceGraphic" in2="effect1_dropShadow_50_416" result="shape"/>
</filter>
<clipPath id="clip0_50_416">
<rect width="95.2" height="45.225" fill="white" transform="translate(20.4 44.55)"/>
</clipPath>
</defs>
</svg>
