<svg width="135" height="135" viewBox="0 0 135 135" fill="none" xmlns="http://www.w3.org/2000/svg">
<g clip-path="url(#clip0_50_422)">
<path d="M15.0255 68.526V69.3563C15.0255 69.9503 15.1133 70.308 15.3833 70.4093C15.4305 70.4565 15.4305 70.5443 15.3698 70.5848C15.1943 70.5848 14.9243 70.6455 14.6408 70.7198C13.851 70.929 12.7845 71.1045 11.9813 71.1045C10.2128 71.1045 8.59275 70.6118 7.452 69.4575C6.561 68.5665 6.0885 67.392 6.0885 66.0893C6.0885 64.7865 6.507 63.5513 7.425 62.5725C8.41725 61.533 9.88875 60.8378 12.1298 60.8378C12.9735 60.8378 13.7633 60.9998 14.013 61.0605C14.2965 61.1213 14.7555 61.2225 14.931 61.1955C14.931 61.6883 15.0188 62.4578 15.1538 63.3488C15.1065 63.4703 14.8433 63.4838 14.7555 63.396C14.337 61.7895 13.2233 61.29 11.7113 61.29C8.829 61.29 7.56675 63.342 7.56675 65.5695C7.56675 68.418 9.03825 70.6658 12.0218 70.6658C12.9398 70.6658 13.4932 70.47 13.6552 70.2203C13.7295 70.119 13.8038 69.849 13.8038 69.3765V68.7825C13.8038 67.5338 13.7565 67.446 12.8385 67.3448L12.1838 67.2705C12.0623 67.2098 12.0825 66.9465 12.1838 66.8993C12.6158 66.9263 13.4325 66.9465 14.31 66.9465C14.8905 66.9465 15.3968 66.933 15.8828 66.8993C15.984 66.96 16.0043 67.1828 15.8963 67.2705L15.66 67.2975C15.039 67.3718 15.0188 67.7903 15.0188 68.5463L15.0255 68.526ZM18.2453 68.4383L20.0137 67.797C20.2365 67.7228 20.2635 67.5878 20.2635 67.365L20.277 66.6833C20.2905 66.1365 20.115 65.394 19.1902 65.394C18.7717 65.394 18.2723 65.6033 18.2385 66.0623C18.225 66.2985 18.2115 66.4808 18.09 66.5685C17.8672 66.744 17.469 66.852 17.2462 66.852C17.1112 66.852 17.037 66.7778 17.037 66.6428C17.037 65.8733 18.7177 64.8135 19.7977 64.8135C20.8777 64.8135 21.384 65.4345 21.3435 66.5483L21.2557 69.1335C21.2287 69.8153 21.357 70.4228 21.9375 70.4228C22.086 70.4228 22.221 70.3755 22.3087 70.335C22.383 70.2878 22.4572 70.2338 22.5045 70.2338C22.5652 70.2338 22.6057 70.3215 22.6057 70.4295C22.6057 70.5038 22.086 71.0843 21.357 71.0843C20.9992 71.0843 20.6415 70.9493 20.3917 70.6253C20.331 70.5375 20.2433 70.416 20.1555 70.416C20.0543 70.416 19.872 70.551 19.575 70.713C19.251 70.8885 18.9202 71.0843 18.5085 71.0843C18.0967 71.0843 17.7187 70.9628 17.469 70.74C17.1855 70.4903 17.01 70.119 17.01 69.7005C17.01 69.12 17.2935 68.7825 18.2453 68.4383V68.4383ZM18.1575 69.525C18.1575 69.7748 18.333 70.416 19.0958 70.416C19.3928 70.416 19.8517 70.1933 20.0002 70.0448C20.1757 69.8693 20.1757 69.66 20.196 69.3495L20.223 68.472C20.223 68.31 20.1622 68.2763 20.0745 68.2763C19.9867 68.2763 19.7302 68.337 19.467 68.4248C18.5895 68.7218 18.1575 68.9445 18.1575 69.525V69.525ZM24.9007 62.1878V69.2145C24.9007 70.281 24.9277 70.4295 25.4677 70.5038L25.8255 70.551C25.9267 70.6253 25.8997 70.875 25.7985 70.9223C25.3057 70.8953 24.8805 70.875 24.3607 70.875C23.841 70.875 23.382 70.8885 22.9365 70.9223C22.8352 70.875 22.8015 70.6253 22.9095 70.551L23.2537 70.5038C23.8005 70.4295 23.8208 70.281 23.8208 69.2145V62.4983C23.8208 61.6208 23.8072 61.533 23.3617 61.263L23.2132 61.1753C23.139 61.128 23.139 60.9255 23.2132 60.8783C23.5845 60.7568 24.2797 60.534 24.8197 60.2573C24.8805 60.2573 24.9412 60.2843 24.9682 60.345C24.9547 60.7905 24.921 61.533 24.921 62.1878H24.9007ZM30.8407 67.0748H28.0935C27.7087 67.0748 27.6952 67.1018 27.6952 67.473C27.6952 68.9715 28.5727 70.2473 30.159 70.2473C30.6517 70.2473 31.0635 70.0988 31.5225 69.5183C31.671 69.471 31.7722 69.5655 31.7925 69.6938C31.2997 70.7063 30.2332 71.0775 29.4638 71.0775C28.4985 71.0775 27.7425 70.659 27.3105 70.0988C26.865 69.5183 26.6895 68.823 26.6895 68.1683C26.6895 66.339 27.891 64.8135 29.673 64.8135C30.9487 64.8135 31.779 65.691 31.779 66.582C31.779 66.7913 31.752 66.906 31.7182 66.9668C31.671 67.0545 31.4685 67.068 30.8407 67.068V67.0748ZM27.9585 66.6293H29.0115C30.1117 66.6293 30.4357 66.5685 30.5572 66.4808C30.6045 66.4538 30.645 66.393 30.645 66.1973C30.645 65.7788 30.3615 65.259 29.5042 65.259C28.647 65.259 27.8707 66.0623 27.8572 66.5483C27.8572 66.5753 27.8572 66.6225 27.9585 66.6225V66.6293ZM33.5002 69.2145V66.6158C33.5002 66.0353 33.5002 65.961 33.102 65.6978L32.967 65.61C32.9062 65.5493 32.9062 65.3873 32.9805 65.34C33.3247 65.2185 34.1077 64.8338 34.479 64.611C34.5532 64.6245 34.6005 64.6583 34.6005 64.7123V65.5763C34.6005 65.6505 34.614 65.6978 34.6477 65.7113C35.1675 65.2793 35.7345 64.8203 36.2812 64.8203C36.6525 64.8203 36.9495 65.0565 36.9495 65.4143C36.9495 65.907 36.5512 66.096 36.3082 66.096C36.1597 66.096 36.0855 66.0488 35.9842 65.9948C35.7615 65.8463 35.5387 65.7585 35.3295 65.7585C35.0932 65.7585 34.911 65.8935 34.7962 66.0555C34.6477 66.2648 34.6005 66.6968 34.6005 67.1963V69.2145C34.6005 70.281 34.6275 70.4633 35.1945 70.5038L35.7277 70.551C35.829 70.6253 35.802 70.875 35.7007 70.9223C35.0055 70.8953 34.5735 70.875 34.0537 70.875C33.534 70.875 33.075 70.8885 32.6902 70.9223C32.589 70.875 32.5552 70.6253 32.6632 70.551L32.9467 70.5038C33.4935 70.416 33.5137 70.281 33.5137 69.2145H33.5002ZM38.4277 69.2145V66.6158C38.4277 66.0353 38.4277 65.961 38.0295 65.6978L37.8945 65.61C37.8337 65.5493 37.8337 65.3873 37.908 65.34C38.2522 65.2185 39.096 64.8338 39.4402 64.611C39.5145 64.611 39.5752 64.638 39.5887 64.6988C39.5617 65.2185 39.528 65.934 39.528 66.5415V69.2145C39.528 70.281 39.555 70.4295 40.095 70.5038L40.4055 70.551C40.5067 70.6253 40.4797 70.875 40.3785 70.9223C39.933 70.8953 39.501 70.875 38.9812 70.875C38.4615 70.875 38.0025 70.8885 37.584 70.9223C37.4827 70.875 37.449 70.6253 37.557 70.551L37.8675 70.5038C38.4142 70.4295 38.4345 70.281 38.4345 69.2145H38.4277ZM38.9205 61.614C39.366 61.614 39.663 61.9718 39.663 62.3835C39.663 62.9168 39.2917 63.153 38.8732 63.153C38.4142 63.153 38.1172 62.8088 38.1172 62.4105C38.1172 61.9178 38.475 61.6073 38.9205 61.6073V61.614ZM45.468 67.0815H42.7207C42.336 67.0815 42.3225 67.1085 42.3225 67.4798C42.3225 68.9783 43.2 70.254 44.7862 70.254C45.279 70.254 45.6907 70.1055 46.1497 69.525C46.2982 69.4778 46.3995 69.5723 46.4197 69.7005C45.927 70.713 44.8605 71.0843 44.091 71.0843C43.1257 71.0843 42.3697 70.6658 41.9377 70.1055C41.4922 69.525 41.3167 68.8298 41.3167 68.175C41.3167 66.3458 42.5182 64.8203 44.3002 64.8203C45.576 64.8203 46.4062 65.6978 46.4062 66.5888C46.4062 66.798 46.3792 66.9128 46.3455 66.9735C46.2982 67.0613 46.0957 67.0748 45.468 67.0748V67.0815ZM42.5857 66.636H43.6387C44.739 66.636 45.063 66.5753 45.1845 66.4875C45.2317 66.4605 45.2722 66.3998 45.2722 66.204C45.2722 65.7855 44.9887 65.2658 44.1315 65.2658C43.2742 65.2658 42.498 66.069 42.4845 66.555C42.4845 66.582 42.4845 66.6293 42.5857 66.6293V66.636ZM52.2855 68.6543V63.3015C52.2855 61.7423 52.2585 61.506 51.3202 61.4318L50.949 61.4048C50.8613 61.344 50.8882 61.0808 50.976 61.0335C51.8062 61.0605 52.3125 61.0808 52.9065 61.0808C53.5005 61.0808 53.9932 61.0673 54.7357 61.0335C54.8235 61.0808 54.8572 61.344 54.7627 61.4048L54.405 61.4318C53.5275 61.506 53.5005 61.7423 53.5005 63.3015V68.472C53.5005 69.4103 53.5478 69.795 53.811 70.0785C53.973 70.2405 54.2565 70.4228 55.431 70.4228C56.6933 70.4228 57.0038 70.362 57.24 70.227C57.537 70.0515 57.9217 69.5115 58.2187 68.7555C58.3065 68.6813 58.59 68.742 58.59 68.8433C58.59 69.0053 58.1715 70.524 57.969 70.9223C57.213 70.8953 55.8023 70.875 54.27 70.875H52.9065C52.2855 70.875 51.8062 70.8885 50.976 70.9223C50.8882 70.875 50.8545 70.6388 50.949 70.551L51.3945 70.5038C52.2585 70.416 52.2855 70.2068 52.2855 68.6475V68.6543ZM63.2745 67.0815H60.5272C60.1425 67.0815 60.129 67.1085 60.129 67.4798C60.129 68.9783 61.0065 70.254 62.5928 70.254C63.0855 70.254 63.4972 70.1055 63.9562 69.525C64.1047 69.4778 64.206 69.5723 64.2263 69.7005C63.7335 70.713 62.667 71.0843 61.8975 71.0843C60.9322 71.0843 60.1763 70.6658 59.7443 70.1055C59.2988 69.525 59.1232 68.8298 59.1232 68.175C59.1232 66.3458 60.3248 64.8203 62.1068 64.8203C63.3825 64.8203 64.2127 65.6978 64.2127 66.5888C64.2127 66.798 64.1857 66.9128 64.152 66.9735C64.1047 67.0613 63.9022 67.0748 63.2745 67.0748V67.0815ZM60.3923 66.636H61.4452C62.5455 66.636 62.8695 66.5753 62.991 66.4875C63.0382 66.4605 63.0787 66.3998 63.0787 66.204C63.0787 65.7855 62.7953 65.2658 61.938 65.2658C61.0808 65.2658 60.3045 66.069 60.291 66.555C60.291 66.582 60.291 66.6293 60.3923 66.6293V66.636ZM66.879 62.1945V69.2145C66.879 70.281 66.906 70.4295 67.446 70.5038L67.8037 70.551C67.905 70.6253 67.878 70.875 67.7768 70.9223C67.284 70.8953 66.8587 70.875 66.339 70.875C65.8192 70.875 65.3602 70.8885 64.9147 70.9223C64.8135 70.875 64.7797 70.6253 64.8877 70.551L65.232 70.5038C65.7787 70.4295 65.799 70.281 65.799 69.2145V62.4983C65.799 61.6208 65.7855 61.533 65.34 61.263L65.1915 61.1753C65.1173 61.128 65.1173 60.9255 65.1915 60.8783C65.5628 60.7568 66.258 60.534 66.798 60.2573C66.8587 60.2573 66.9195 60.2843 66.9465 60.345C66.933 60.7905 66.8992 61.533 66.8992 62.1878L66.879 62.1945ZM71.8268 64.8203C73.4873 64.8203 74.844 66.069 74.844 67.8915C74.844 69.714 73.5682 71.0843 71.712 71.0843C70.0042 71.0843 68.6678 69.8828 68.6678 68.0265C68.6678 66.1703 70.0785 64.8203 71.8335 64.8203H71.8268ZM73.5615 68.1345C73.5615 66.8723 73.0552 65.2658 71.6445 65.2658C70.6657 65.2658 69.9367 66.204 69.9367 67.8375C69.9367 69.1875 70.5442 70.6455 71.8537 70.6455C73.1632 70.6455 73.5615 69.282 73.5615 68.1345ZM76.815 69.2213V66.6225C76.815 66.042 76.815 65.9678 76.4167 65.7045L76.2817 65.6168C76.221 65.556 76.221 65.394 76.2952 65.3468C76.6395 65.2253 77.4833 64.8405 77.7803 64.6178C77.841 64.6178 77.9152 64.6448 77.9422 64.719C77.9152 65.0633 77.9152 65.286 77.9152 65.4143C77.9152 65.502 77.976 65.5763 78.0772 65.5763C78.6982 65.1915 79.4002 64.8203 80.1562 64.8203C81.3915 64.8203 81.891 65.664 81.891 66.663V69.2145C81.891 70.281 81.918 70.4295 82.458 70.5038L82.782 70.551C82.8832 70.6253 82.8562 70.875 82.755 70.9223C82.3095 70.8953 81.8775 70.875 81.3577 70.875C80.838 70.875 80.379 70.8885 79.974 70.9223C79.8728 70.875 79.839 70.6253 79.947 70.551L80.2305 70.5038C80.7772 70.416 80.7975 70.281 80.7975 69.2145V67.0005C80.7975 66.1568 80.4127 65.529 79.4002 65.529C78.8332 65.529 78.3472 65.7653 78.138 66.0488C77.9422 66.2985 77.9152 66.5078 77.9152 66.9398V69.2145C77.9152 70.281 77.9422 70.416 78.4822 70.5038L78.7522 70.551C78.8535 70.6253 78.8265 70.875 78.7252 70.9223C78.327 70.8953 77.895 70.875 77.3752 70.875C76.8555 70.875 76.3965 70.8885 75.978 70.9223C75.8767 70.875 75.843 70.6253 75.951 70.551L76.2615 70.5038C76.8083 70.4295 76.8285 70.281 76.8285 69.2145L76.815 69.2213ZM88.5735 65.3603H89.775C89.937 65.4345 89.91 65.9408 89.6872 65.9678H88.6207C88.6477 66.2175 88.6477 66.474 88.6477 66.7238C88.6477 67.7498 88.0402 69.0863 86.1502 69.0863C85.8802 69.0863 85.6778 69.0593 85.4955 69.039C85.32 69.1403 84.8407 69.4238 84.8407 69.8558C84.8407 70.2 85.185 70.4768 85.8802 70.4768C86.3865 70.4768 86.994 70.4295 87.6487 70.4295C88.479 70.4295 89.7277 70.578 89.7277 72.063C89.7277 73.683 87.9592 74.871 86.0287 74.871C84.1995 74.871 83.565 73.8923 83.565 73.1498C83.565 72.9135 83.6257 72.7178 83.727 72.603C83.9767 72.333 84.3952 71.9483 84.7395 71.6108C84.8745 71.4758 84.9892 71.3408 84.861 71.253C84.2805 71.1045 83.7742 70.5983 83.7742 70.0785C83.7742 70.0043 83.835 69.9435 83.997 69.8288C84.2467 69.6668 84.5302 69.4103 84.7867 69.147C84.861 69.0593 84.9352 68.9378 84.9352 68.8635C84.429 68.5935 83.8215 68.0198 83.8215 67.068C83.8215 65.7923 84.9217 64.827 86.2447 64.827C86.8117 64.827 87.3315 64.9755 87.669 65.124C88.1415 65.3333 88.2495 65.3603 88.5735 65.3603V65.3603ZM87.1762 71.361H86.67C86.1975 71.361 85.6035 71.388 85.3942 71.523C85.0365 71.7458 84.6787 72.2048 84.6787 72.7718C84.6787 73.575 85.32 74.2433 86.67 74.2433C88.02 74.2433 88.8705 73.5008 88.8705 72.657C88.8705 71.7525 88.2495 71.3678 87.1762 71.3678V71.361ZM86.373 68.661C87.1762 68.661 87.588 68.0198 87.588 67.1153C87.588 66.1028 87.1695 65.259 86.265 65.259C85.5495 65.259 85.0162 65.9138 85.0162 66.9195C85.0162 67.9253 85.6575 68.6543 86.3662 68.6543L86.373 68.661ZM102.026 63.7875H103.241C104.355 63.7875 104.935 63.7605 105.334 63.7268C105.435 63.801 105.435 63.9968 105.361 64.0845L104.706 64.1858C103.889 64.3208 103.457 65.0633 102.998 65.8058C102.505 66.5955 101.898 67.4258 101.277 68.283C101.527 68.6813 101.621 68.8028 101.77 69.0255C102.559 70.227 103.315 70.362 103.923 70.362C104.382 70.362 104.915 70.1865 105.259 69.8288C105.381 69.8423 105.469 69.9638 105.421 70.0988C104.827 70.8413 103.984 71.091 103.059 71.091C102.391 71.091 101.749 70.9155 101.473 70.659C101.25 70.4633 100.73 69.5723 100.568 69.2955C99.7245 70.2473 98.6512 71.091 97.3282 71.091C95.2357 71.091 94.419 69.5925 94.419 68.418C94.419 66.8723 95.5057 65.9678 96.822 65.178C96.2887 64.8068 95.6812 64.2263 95.6812 63.3825C95.6812 62.208 96.6937 61.3778 97.7602 61.3778C98.8875 61.3778 99.6772 62.1203 99.6772 63.1463C99.6772 64.1723 98.9077 64.5098 98.1787 64.9283C98.9955 65.4345 100.021 66.3863 101.014 67.8375C101.358 67.3785 102.141 66.1028 102.559 65.2388C102.809 64.7325 102.883 64.5098 102.883 64.422C102.883 64.3208 102.735 64.2263 102.499 64.1993L101.992 64.1385C101.905 64.0508 101.905 63.855 102.019 63.7808L102.026 63.7875ZM97.2135 65.4953C96.471 65.8665 95.5327 66.771 95.5327 67.9725C95.5327 69.2955 96.4372 70.2135 97.7467 70.2135C98.739 70.2135 99.63 69.633 100.298 68.85C99.5827 67.6013 98.3947 66.2783 97.2067 65.4953H97.2135ZM97.7062 61.8098C97.0515 61.8098 96.6397 62.4173 96.6397 63.0248C96.6397 63.6323 97.0582 64.1858 97.8547 64.6448C98.361 64.3005 98.7457 63.8145 98.7457 63.099C98.7457 62.4443 98.4217 61.8098 97.7062 61.8098ZM110.005 66.042C110.005 64.395 110.747 62.9843 111.874 62.1068C112.961 61.263 114.338 60.8445 115.884 60.8445C116.687 60.8445 117.814 61.0065 118.51 61.2023C118.685 61.2495 118.793 61.2765 118.928 61.263C118.942 61.6073 119.016 62.5388 119.137 63.4433C119.063 63.5445 118.84 63.5648 118.739 63.4703C118.516 62.4578 117.848 61.3035 115.695 61.3035C113.42 61.3035 111.49 62.7413 111.49 65.8193C111.49 68.8973 113.467 70.659 115.897 70.659C117.814 70.659 118.658 69.4103 119.002 68.5328C119.104 68.4585 119.326 68.4855 119.387 68.5935C119.286 69.363 118.894 70.3485 118.672 70.6253C118.496 70.6523 118.314 70.713 118.152 70.7738C117.828 70.8953 116.755 71.118 115.803 71.118C114.466 71.118 113.191 70.848 112.104 70.1258C110.916 69.309 109.998 67.959 109.998 66.042H110.005ZM123.37 64.827C125.03 64.827 126.387 66.0758 126.387 67.8983C126.387 69.7208 125.111 71.091 123.255 71.091C121.547 71.091 120.211 69.8895 120.211 68.0333C120.211 66.177 121.621 64.827 123.376 64.827H123.37ZM125.104 68.1413C125.104 66.879 124.598 65.2725 123.187 65.2725C122.209 65.2725 121.48 66.2108 121.48 67.8443C121.48 69.1943 122.087 70.6523 123.397 70.6523C124.706 70.6523 125.104 69.2888 125.104 68.1413ZM128.756 71.0978C128.324 71.0978 127.926 70.7873 127.926 70.281C127.926 69.7748 128.284 69.4035 128.756 69.4035C129.262 69.4035 129.586 69.8018 129.586 70.281C129.586 70.7603 129.262 71.0978 128.756 71.0978Z" fill="white"/>
<mask id="mask0_50_422" style="mask-type:alpha" maskUnits="userSpaceOnUse" x="5" y="60" width="126" height="15">
<path d="M130.275 60.075H5.40002V74.925H130.275V60.075Z" fill="white"/>
</mask>
<g mask="url(#mask0_50_422)">
<path d="M15.0255 68.526V69.3563C15.0255 69.9503 15.1133 70.308 15.3833 70.4093C15.4305 70.4565 15.4305 70.5443 15.3698 70.5848C15.1943 70.5848 14.9243 70.6455 14.6408 70.7198C13.851 70.929 12.7845 71.1045 11.9813 71.1045C10.2128 71.1045 8.59275 70.6118 7.452 69.4575C6.561 68.5665 6.0885 67.392 6.0885 66.0893C6.0885 64.7865 6.507 63.5513 7.425 62.5725C8.41725 61.533 9.88875 60.8378 12.1298 60.8378C12.9735 60.8378 13.7633 60.9998 14.013 61.0605C14.2965 61.1213 14.7555 61.2225 14.931 61.1955C14.931 61.6883 15.0188 62.4578 15.1538 63.3488C15.1065 63.4703 14.8433 63.4838 14.7555 63.396C14.337 61.7895 13.2233 61.29 11.7113 61.29C8.829 61.29 7.56675 63.342 7.56675 65.5695C7.56675 68.418 9.03825 70.6658 12.0218 70.6658C12.9398 70.6658 13.4932 70.47 13.6552 70.2203C13.7295 70.119 13.8038 69.849 13.8038 69.3765V68.7825C13.8038 67.5338 13.7565 67.446 12.8385 67.3448L12.1838 67.2705C12.0623 67.2098 12.0825 66.9465 12.1838 66.8993C12.6158 66.9263 13.4325 66.9465 14.31 66.9465C14.8905 66.9465 15.3968 66.933 15.8828 66.8993C15.984 66.96 16.0043 67.1828 15.8963 67.2705L15.66 67.2975C15.039 67.3718 15.0188 67.7903 15.0188 68.5463L15.0255 68.526ZM18.2453 68.4383L20.0137 67.797C20.2365 67.7228 20.2635 67.5878 20.2635 67.365L20.277 66.6833C20.2905 66.1365 20.115 65.394 19.1902 65.394C18.7717 65.394 18.2723 65.6033 18.2385 66.0623C18.225 66.2985 18.2115 66.4808 18.09 66.5685C17.8672 66.744 17.469 66.852 17.2462 66.852C17.1112 66.852 17.037 66.7778 17.037 66.6428C17.037 65.8733 18.7177 64.8135 19.7977 64.8135C20.8777 64.8135 21.384 65.4345 21.3435 66.5483L21.2557 69.1335C21.2287 69.8153 21.357 70.4228 21.9375 70.4228C22.086 70.4228 22.221 70.3755 22.3087 70.335C22.383 70.2878 22.4572 70.2338 22.5045 70.2338C22.5652 70.2338 22.6057 70.3215 22.6057 70.4295C22.6057 70.5038 22.086 71.0843 21.357 71.0843C20.9992 71.0843 20.6415 70.9493 20.3917 70.6253C20.331 70.5375 20.2433 70.416 20.1555 70.416C20.0543 70.416 19.872 70.551 19.575 70.713C19.251 70.8885 18.9202 71.0843 18.5085 71.0843C18.0967 71.0843 17.7187 70.9628 17.469 70.74C17.1855 70.4903 17.01 70.119 17.01 69.7005C17.01 69.12 17.2935 68.7825 18.2453 68.4383V68.4383ZM18.1575 69.525C18.1575 69.7748 18.333 70.416 19.0958 70.416C19.3928 70.416 19.8517 70.1933 20.0002 70.0448C20.1757 69.8693 20.1757 69.66 20.196 69.3495L20.223 68.472C20.223 68.31 20.1622 68.2763 20.0745 68.2763C19.9867 68.2763 19.7302 68.337 19.467 68.4248C18.5895 68.7218 18.1575 68.9445 18.1575 69.525V69.525ZM24.9007 62.1878V69.2145C24.9007 70.281 24.9277 70.4295 25.4677 70.5038L25.8255 70.551C25.9267 70.6253 25.8997 70.875 25.7985 70.9223C25.3057 70.8953 24.8805 70.875 24.3607 70.875C23.841 70.875 23.382 70.8885 22.9365 70.9223C22.8352 70.875 22.8015 70.6253 22.9095 70.551L23.2537 70.5038C23.8005 70.4295 23.8208 70.281 23.8208 69.2145V62.4983C23.8208 61.6208 23.8072 61.533 23.3617 61.263L23.2132 61.1753C23.139 61.128 23.139 60.9255 23.2132 60.8783C23.5845 60.7568 24.2797 60.534 24.8197 60.2573C24.8805 60.2573 24.9412 60.2843 24.9682 60.345C24.9547 60.7905 24.921 61.533 24.921 62.1878H24.9007ZM30.8407 67.0748H28.0935C27.7087 67.0748 27.6952 67.1018 27.6952 67.473C27.6952 68.9715 28.5727 70.2473 30.159 70.2473C30.6517 70.2473 31.0635 70.0988 31.5225 69.5183C31.671 69.471 31.7722 69.5655 31.7925 69.6938C31.2997 70.7063 30.2332 71.0775 29.4638 71.0775C28.4985 71.0775 27.7425 70.659 27.3105 70.0988C26.865 69.5183 26.6895 68.823 26.6895 68.1683C26.6895 66.339 27.891 64.8135 29.673 64.8135C30.9487 64.8135 31.779 65.691 31.779 66.582C31.779 66.7913 31.752 66.906 31.7182 66.9668C31.671 67.0545 31.4685 67.068 30.8407 67.068V67.0748ZM27.9585 66.6293H29.0115C30.1117 66.6293 30.4357 66.5685 30.5572 66.4808C30.6045 66.4538 30.645 66.393 30.645 66.1973C30.645 65.7788 30.3615 65.259 29.5042 65.259C28.647 65.259 27.8707 66.0623 27.8572 66.5483C27.8572 66.5753 27.8572 66.6225 27.9585 66.6225V66.6293ZM33.5002 69.2145V66.6158C33.5002 66.0353 33.5002 65.961 33.102 65.6978L32.967 65.61C32.9062 65.5493 32.9062 65.3873 32.9805 65.34C33.3247 65.2185 34.1077 64.8338 34.479 64.611C34.5532 64.6245 34.6005 64.6583 34.6005 64.7123V65.5763C34.6005 65.6505 34.614 65.6978 34.6477 65.7113C35.1675 65.2793 35.7345 64.8203 36.2812 64.8203C36.6525 64.8203 36.9495 65.0565 36.9495 65.4143C36.9495 65.907 36.5512 66.096 36.3082 66.096C36.1597 66.096 36.0855 66.0488 35.9842 65.9948C35.7615 65.8463 35.5387 65.7585 35.3295 65.7585C35.0932 65.7585 34.911 65.8935 34.7962 66.0555C34.6477 66.2648 34.6005 66.6968 34.6005 67.1963V69.2145C34.6005 70.281 34.6275 70.4633 35.1945 70.5038L35.7277 70.551C35.829 70.6253 35.802 70.875 35.7007 70.9223C35.0055 70.8953 34.5735 70.875 34.0537 70.875C33.534 70.875 33.075 70.8885 32.6902 70.9223C32.589 70.875 32.5552 70.6253 32.6632 70.551L32.9467 70.5038C33.4935 70.416 33.5137 70.281 33.5137 69.2145H33.5002ZM38.4277 69.2145V66.6158C38.4277 66.0353 38.4277 65.961 38.0295 65.6978L37.8945 65.61C37.8337 65.5493 37.8337 65.3873 37.908 65.34C38.2522 65.2185 39.096 64.8338 39.4402 64.611C39.5145 64.611 39.5752 64.638 39.5887 64.6988C39.5617 65.2185 39.528 65.934 39.528 66.5415V69.2145C39.528 70.281 39.555 70.4295 40.095 70.5038L40.4055 70.551C40.5067 70.6253 40.4797 70.875 40.3785 70.9223C39.933 70.8953 39.501 70.875 38.9812 70.875C38.4615 70.875 38.0025 70.8885 37.584 70.9223C37.4827 70.875 37.449 70.6253 37.557 70.551L37.8675 70.5038C38.4142 70.4295 38.4345 70.281 38.4345 69.2145H38.4277ZM38.9205 61.614C39.366 61.614 39.663 61.9718 39.663 62.3835C39.663 62.9168 39.2917 63.153 38.8732 63.153C38.4142 63.153 38.1172 62.8088 38.1172 62.4105C38.1172 61.9178 38.475 61.6073 38.9205 61.6073V61.614ZM45.468 67.0815H42.7207C42.336 67.0815 42.3225 67.1085 42.3225 67.4798C42.3225 68.9783 43.2 70.254 44.7862 70.254C45.279 70.254 45.6907 70.1055 46.1497 69.525C46.2982 69.4778 46.3995 69.5723 46.4197 69.7005C45.927 70.713 44.8605 71.0843 44.091 71.0843C43.1257 71.0843 42.3697 70.6658 41.9377 70.1055C41.4922 69.525 41.3167 68.8298 41.3167 68.175C41.3167 66.3458 42.5182 64.8203 44.3002 64.8203C45.576 64.8203 46.4062 65.6978 46.4062 66.5888C46.4062 66.798 46.3792 66.9128 46.3455 66.9735C46.2982 67.0613 46.0957 67.0748 45.468 67.0748V67.0815ZM42.5857 66.636H43.6387C44.739 66.636 45.063 66.5753 45.1845 66.4875C45.2317 66.4605 45.2722 66.3998 45.2722 66.204C45.2722 65.7855 44.9887 65.2658 44.1315 65.2658C43.2742 65.2658 42.498 66.069 42.4845 66.555C42.4845 66.582 42.4845 66.6293 42.5857 66.6293V66.636ZM52.2855 68.6543V63.3015C52.2855 61.7423 52.2585 61.506 51.3202 61.4318L50.949 61.4048C50.8613 61.344 50.8882 61.0808 50.976 61.0335C51.8062 61.0605 52.3125 61.0808 52.9065 61.0808C53.5005 61.0808 53.9932 61.0673 54.7357 61.0335C54.8235 61.0808 54.8572 61.344 54.7627 61.4048L54.405 61.4318C53.5275 61.506 53.5005 61.7423 53.5005 63.3015V68.472C53.5005 69.4103 53.5478 69.795 53.811 70.0785C53.973 70.2405 54.2565 70.4228 55.431 70.4228C56.6933 70.4228 57.0038 70.362 57.24 70.227C57.537 70.0515 57.9217 69.5115 58.2187 68.7555C58.3065 68.6813 58.59 68.742 58.59 68.8433C58.59 69.0053 58.1715 70.524 57.969 70.9223C57.213 70.8953 55.8023 70.875 54.27 70.875H52.9065C52.2855 70.875 51.8062 70.8885 50.976 70.9223C50.8882 70.875 50.8545 70.6388 50.949 70.551L51.3945 70.5038C52.2585 70.416 52.2855 70.2068 52.2855 68.6475V68.6543ZM63.2745 67.0815H60.5272C60.1425 67.0815 60.129 67.1085 60.129 67.4798C60.129 68.9783 61.0065 70.254 62.5928 70.254C63.0855 70.254 63.4972 70.1055 63.9562 69.525C64.1047 69.4778 64.206 69.5723 64.2263 69.7005C63.7335 70.713 62.667 71.0843 61.8975 71.0843C60.9322 71.0843 60.1763 70.6658 59.7443 70.1055C59.2988 69.525 59.1232 68.8298 59.1232 68.175C59.1232 66.3458 60.3248 64.8203 62.1068 64.8203C63.3825 64.8203 64.2127 65.6978 64.2127 66.5888C64.2127 66.798 64.1857 66.9128 64.152 66.9735C64.1047 67.0613 63.9022 67.0748 63.2745 67.0748V67.0815ZM60.3923 66.636H61.4452C62.5455 66.636 62.8695 66.5753 62.991 66.4875C63.0382 66.4605 63.0787 66.3998 63.0787 66.204C63.0787 65.7855 62.7953 65.2658 61.938 65.2658C61.0808 65.2658 60.3045 66.069 60.291 66.555C60.291 66.582 60.291 66.6293 60.3923 66.6293V66.636ZM66.879 62.1945V69.2145C66.879 70.281 66.906 70.4295 67.446 70.5038L67.8037 70.551C67.905 70.6253 67.878 70.875 67.7768 70.9223C67.284 70.8953 66.8587 70.875 66.339 70.875C65.8192 70.875 65.3602 70.8885 64.9147 70.9223C64.8135 70.875 64.7797 70.6253 64.8877 70.551L65.232 70.5038C65.7787 70.4295 65.799 70.281 65.799 69.2145V62.4983C65.799 61.6208 65.7855 61.533 65.34 61.263L65.1915 61.1753C65.1173 61.128 65.1173 60.9255 65.1915 60.8783C65.5628 60.7568 66.258 60.534 66.798 60.2573C66.8587 60.2573 66.9195 60.2843 66.9465 60.345C66.933 60.7905 66.8992 61.533 66.8992 62.1878L66.879 62.1945ZM71.8268 64.8203C73.4873 64.8203 74.844 66.069 74.844 67.8915C74.844 69.714 73.5682 71.0843 71.712 71.0843C70.0042 71.0843 68.6678 69.8828 68.6678 68.0265C68.6678 66.1703 70.0785 64.8203 71.8335 64.8203H71.8268ZM73.5615 68.1345C73.5615 66.8723 73.0552 65.2658 71.6445 65.2658C70.6657 65.2658 69.9367 66.204 69.9367 67.8375C69.9367 69.1875 70.5442 70.6455 71.8537 70.6455C73.1632 70.6455 73.5615 69.282 73.5615 68.1345ZM76.815 69.2213V66.6225C76.815 66.042 76.815 65.9678 76.4167 65.7045L76.2817 65.6168C76.221 65.556 76.221 65.394 76.2952 65.3468C76.6395 65.2253 77.4833 64.8405 77.7803 64.6178C77.841 64.6178 77.9152 64.6448 77.9422 64.719C77.9152 65.0633 77.9152 65.286 77.9152 65.4143C77.9152 65.502 77.976 65.5763 78.0772 65.5763C78.6982 65.1915 79.4002 64.8203 80.1562 64.8203C81.3915 64.8203 81.891 65.664 81.891 66.663V69.2145C81.891 70.281 81.918 70.4295 82.458 70.5038L82.782 70.551C82.8832 70.6253 82.8562 70.875 82.755 70.9223C82.3095 70.8953 81.8775 70.875 81.3577 70.875C80.838 70.875 80.379 70.8885 79.974 70.9223C79.8728 70.875 79.839 70.6253 79.947 70.551L80.2305 70.5038C80.7772 70.416 80.7975 70.281 80.7975 69.2145V67.0005C80.7975 66.1568 80.4127 65.529 79.4002 65.529C78.8332 65.529 78.3472 65.7653 78.138 66.0488C77.9422 66.2985 77.9152 66.5078 77.9152 66.9398V69.2145C77.9152 70.281 77.9422 70.416 78.4822 70.5038L78.7522 70.551C78.8535 70.6253 78.8265 70.875 78.7252 70.9223C78.327 70.8953 77.895 70.875 77.3752 70.875C76.8555 70.875 76.3965 70.8885 75.978 70.9223C75.8767 70.875 75.843 70.6253 75.951 70.551L76.2615 70.5038C76.8083 70.4295 76.8285 70.281 76.8285 69.2145L76.815 69.2213ZM88.5735 65.3603H89.775C89.937 65.4345 89.91 65.9408 89.6872 65.9678H88.6207C88.6477 66.2175 88.6477 66.474 88.6477 66.7238C88.6477 67.7498 88.0402 69.0863 86.1502 69.0863C85.8802 69.0863 85.6778 69.0593 85.4955 69.039C85.32 69.1403 84.8407 69.4238 84.8407 69.8558C84.8407 70.2 85.185 70.4768 85.8802 70.4768C86.3865 70.4768 86.994 70.4295 87.6487 70.4295C88.479 70.4295 89.7277 70.578 89.7277 72.063C89.7277 73.683 87.9592 74.871 86.0287 74.871C84.1995 74.871 83.565 73.8923 83.565 73.1498C83.565 72.9135 83.6257 72.7178 83.727 72.603C83.9767 72.333 84.3952 71.9483 84.7395 71.6108C84.8745 71.4758 84.9892 71.3408 84.861 71.253C84.2805 71.1045 83.7742 70.5983 83.7742 70.0785C83.7742 70.0043 83.835 69.9435 83.997 69.8288C84.2467 69.6668 84.5302 69.4103 84.7867 69.147C84.861 69.0593 84.9352 68.9378 84.9352 68.8635C84.429 68.5935 83.8215 68.0198 83.8215 67.068C83.8215 65.7923 84.9217 64.827 86.2447 64.827C86.8117 64.827 87.3315 64.9755 87.669 65.124C88.1415 65.3333 88.2495 65.3603 88.5735 65.3603V65.3603ZM87.1762 71.361H86.67C86.1975 71.361 85.6035 71.388 85.3942 71.523C85.0365 71.7458 84.6787 72.2048 84.6787 72.7718C84.6787 73.575 85.32 74.2433 86.67 74.2433C88.02 74.2433 88.8705 73.5008 88.8705 72.657C88.8705 71.7525 88.2495 71.3678 87.1762 71.3678V71.361ZM86.373 68.661C87.1762 68.661 87.588 68.0198 87.588 67.1153C87.588 66.1028 87.1695 65.259 86.265 65.259C85.5495 65.259 85.0162 65.9138 85.0162 66.9195C85.0162 67.9253 85.6575 68.6543 86.3662 68.6543L86.373 68.661ZM102.026 63.7875H103.241C104.355 63.7875 104.935 63.7605 105.334 63.7268C105.435 63.801 105.435 63.9968 105.361 64.0845L104.706 64.1858C103.889 64.3208 103.457 65.0633 102.998 65.8058C102.505 66.5955 101.898 67.4258 101.277 68.283C101.527 68.6813 101.621 68.8028 101.77 69.0255C102.559 70.227 103.315 70.362 103.923 70.362C104.382 70.362 104.915 70.1865 105.259 69.8288C105.381 69.8423 105.469 69.9638 105.421 70.0988C104.827 70.8413 103.984 71.091 103.059 71.091C102.391 71.091 101.749 70.9155 101.473 70.659C101.25 70.4633 100.73 69.5723 100.568 69.2955C99.7245 70.2473 98.6512 71.091 97.3282 71.091C95.2357 71.091 94.419 69.5925 94.419 68.418C94.419 66.8723 95.5057 65.9678 96.822 65.178C96.2887 64.8068 95.6812 64.2263 95.6812 63.3825C95.6812 62.208 96.6937 61.3778 97.7602 61.3778C98.8875 61.3778 99.6772 62.1203 99.6772 63.1463C99.6772 64.1723 98.9077 64.5098 98.1787 64.9283C98.9955 65.4345 100.021 66.3863 101.014 67.8375C101.358 67.3785 102.141 66.1028 102.559 65.2388C102.809 64.7325 102.883 64.5098 102.883 64.422C102.883 64.3208 102.735 64.2263 102.499 64.1993L101.992 64.1385C101.905 64.0508 101.905 63.855 102.019 63.7808L102.026 63.7875ZM97.2135 65.4953C96.471 65.8665 95.5327 66.771 95.5327 67.9725C95.5327 69.2955 96.4372 70.2135 97.7467 70.2135C98.739 70.2135 99.63 69.633 100.298 68.85C99.5827 67.6013 98.3947 66.2783 97.2067 65.4953H97.2135ZM97.7062 61.8098C97.0515 61.8098 96.6397 62.4173 96.6397 63.0248C96.6397 63.6323 97.0582 64.1858 97.8547 64.6448C98.361 64.3005 98.7457 63.8145 98.7457 63.099C98.7457 62.4443 98.4217 61.8098 97.7062 61.8098ZM110.005 66.042C110.005 64.395 110.747 62.9843 111.874 62.1068C112.961 61.263 114.338 60.8445 115.884 60.8445C116.687 60.8445 117.814 61.0065 118.51 61.2023C118.685 61.2495 118.793 61.2765 118.928 61.263C118.942 61.6073 119.016 62.5388 119.137 63.4433C119.063 63.5445 118.84 63.5648 118.739 63.4703C118.516 62.4578 117.848 61.3035 115.695 61.3035C113.42 61.3035 111.49 62.7413 111.49 65.8193C111.49 68.8973 113.467 70.659 115.897 70.659C117.814 70.659 118.658 69.4103 119.002 68.5328C119.104 68.4585 119.326 68.4855 119.387 68.5935C119.286 69.363 118.894 70.3485 118.672 70.6253C118.496 70.6523 118.314 70.713 118.152 70.7738C117.828 70.8953 116.755 71.118 115.803 71.118C114.466 71.118 113.191 70.848 112.104 70.1258C110.916 69.309 109.998 67.959 109.998 66.042H110.005ZM123.37 64.827C125.03 64.827 126.387 66.0758 126.387 67.8983C126.387 69.7208 125.111 71.091 123.255 71.091C121.547 71.091 120.211 69.8895 120.211 68.0333C120.211 66.177 121.621 64.827 123.376 64.827H123.37ZM125.104 68.1413C125.104 66.879 124.598 65.2725 123.187 65.2725C122.209 65.2725 121.48 66.2108 121.48 67.8443C121.48 69.1943 122.087 70.6523 123.397 70.6523C124.706 70.6523 125.104 69.2888 125.104 68.1413ZM128.756 71.0978C128.324 71.0978 127.926 70.7873 127.926 70.281C127.926 69.7748 128.284 69.4035 128.756 69.4035C129.262 69.4035 129.586 69.8018 129.586 70.281C129.586 70.7603 129.262 71.0978 128.756 71.0978Z" fill="white" stroke="white" stroke-width="0.1"/>
</g>
</g>
<defs>
<clipPath id="clip0_50_422">
<rect width="124.875" height="14.85" fill="white" transform="translate(5.40002 60.075)"/>
</clipPath>
</defs>
</svg>
