<svg width="135" height="135" viewBox="0 0 135 135" fill="none" xmlns="http://www.w3.org/2000/svg">
<g clip-path="url(#clip0_50_421)">
<path d="M101.914 33.5883H30.4927V105.01H101.914V33.5883Z" fill="white" fill-opacity="0.3"/>
<g clip-path="url(#clip1_50_421)">
<path d="M38.0356 87.1263V87.1106C38.5891 86.8843 38.8472 86.5249 38.8472 85.9705C38.8472 85.3002 38.3553 84.6133 37.2083 84.6133H35.6633V89.9352H37.489C38.8233 89.9352 39.3151 89.1705 39.3151 88.5153C39.3151 87.7966 38.8311 87.274 38.0356 87.1258V87.1263ZM36.4275 85.3002H37.1297C37.8318 85.3002 38.0581 85.6425 38.0581 86.0414C38.0581 86.6101 37.691 86.8916 36.9341 86.8916H36.4271V85.3002H36.4275ZM37.3873 89.2487H36.4275V87.5781H37.3487C38.1524 87.5781 38.527 87.9218 38.527 88.4063C38.527 88.8038 38.2849 89.2492 37.3873 89.2492V89.2487Z" fill="white"/>
<path fill-rule="evenodd" clip-rule="evenodd" d="M48.6656 84.5815H48.1273L45.8411 89.9347H46.6214L47.2927 88.3662H49.5559L50.2658 89.9347H51.0461L48.6656 84.5815ZM47.5894 87.6793L48.3854 85.752L49.2435 87.6793H47.5894Z" fill="white"/>
<path fill-rule="evenodd" clip-rule="evenodd" d="M62.9943 89.9342H62.3382L58.7803 85.8376V89.9342H58.0621V84.6133H58.6712L62.2761 88.7339V84.6133H62.9943V89.9342Z" fill="white"/>
<path fill-rule="evenodd" clip-rule="evenodd" d="M73.8861 89.9425V89.9269H73.8865V89.9352C75.1743 89.6862 76.1033 88.5779 76.1033 87.2901C76.1033 85.7285 74.8937 84.5424 73.3013 84.5424C71.5764 84.5424 70.3668 85.6669 70.3668 87.2744C70.3668 88.6013 71.2801 89.6858 72.5983 89.9352C73.3395 90.4817 74.1833 90.9423 75.213 91.0201L75.8999 90.3405L75.876 90.3175C75.3533 90.4652 74.8228 90.3405 73.8856 89.9425H73.8861ZM71.1559 87.2813C71.1559 86.4775 71.6785 85.245 73.2705 85.245C74.4483 85.245 75.3147 86.1348 75.3147 87.2974C75.3147 88.3819 74.4718 89.3025 73.2861 89.3025C71.8653 89.3025 71.1559 88.3584 71.1559 87.2813V87.2813Z" fill="white"/>
<path fill-rule="evenodd" clip-rule="evenodd" d="M87.9217 87.8436C87.9217 89.1466 87.1409 90.0051 85.5572 90.0051C84.4328 90.0051 83.3414 89.3729 83.3414 87.9213V84.6128H84.1056V87.7566C84.1056 88.358 84.1834 88.6078 84.4254 88.8498C84.7305 89.1535 85.1123 89.3016 85.5729 89.3016C86.1577 89.3016 86.5791 89.1148 86.8211 88.8723C87.0949 88.6 87.157 88.2094 87.157 87.7097V84.6123H87.9217V87.8436V87.8436Z" fill="white"/>
<path fill-rule="evenodd" clip-rule="evenodd" d="M98.4427 85.3002H96.1883V86.9073H98.365V87.5937H96.1883V89.2482H98.5131V89.9342H95.4227V84.6133H98.4427V85.3002Z" fill="white"/>
<path fill-rule="evenodd" clip-rule="evenodd" d="M37.8718 94.5384H35.4618V99.9445H36.8099V97.7729H37.88C39.1241 97.7729 39.6634 96.9005 39.6634 96.1395C39.6634 95.3785 39.1085 94.5384 37.8718 94.5384V94.5384ZM37.4351 96.7823H36.8094V95.5299H37.2847C38.0139 95.5299 38.2753 95.6969 38.2753 96.1556C38.2753 96.56 38.0535 96.7823 37.4347 96.7823H37.4351Z" fill="white"/>
<path fill-rule="evenodd" clip-rule="evenodd" d="M44.9931 94.468C42.9558 94.468 41.8934 95.9334 41.8934 97.2424C41.8934 98.6217 43.0115 100.017 44.9931 100.017C46.9747 100.017 48.0849 98.6296 48.0849 97.2424C48.0849 95.9426 47.0304 94.468 44.9931 94.468V94.468ZM44.9931 98.8909C43.9629 98.8909 43.2806 98.2325 43.2806 97.2424C43.2806 96.2523 43.9625 95.5925 44.9931 95.5925C46.0237 95.5925 46.6977 96.2504 46.6973 97.2424C46.6973 98.2325 46.0154 98.8909 44.9931 98.8909Z" fill="white"/>
<path fill-rule="evenodd" clip-rule="evenodd" d="M53.4773 94.5384H51.0677V99.9445H52.4154V97.7729H53.4855C54.7301 97.7729 55.2693 96.9005 55.2693 96.1395C55.2693 95.3785 54.7145 94.5384 53.4773 94.5384ZM53.042 96.7823H52.4158V95.5299H52.8911C53.6208 95.5299 53.8821 95.6969 53.8821 96.1556C53.8821 96.56 53.6604 96.7823 53.042 96.7823Z" fill="white"/>
<path fill-rule="evenodd" clip-rule="evenodd" d="M63.7492 94.5384V97.6063C63.7492 99.3984 62.5286 100.016 61.0462 100.016C59.4768 100.016 58.3431 99.287 58.3431 97.6141V94.5379H59.6908V97.6459C59.6908 98.422 60.2539 98.8895 61.031 98.8895C61.7442 98.8895 62.4021 98.5173 62.4021 97.5497V94.5379H63.7497L63.7492 94.5384Z" fill="white"/>
<path fill-rule="evenodd" clip-rule="evenodd" d="M71.2171 99.945H67.0951V94.5384H68.4432V98.9544H71.2171V99.945Z" fill="white"/>
<path fill-rule="evenodd" clip-rule="evenodd" d="M77.3129 94.5384H75.7518L73.5718 99.9445H74.9986L75.403 98.8743H77.8208L78.2648 99.9445H79.715L77.3129 94.5384V94.5384ZM75.7591 97.9316L76.5519 95.8313L77.4247 97.9316H75.7591Z" fill="white"/>
<path d="M83.9148 94.5384H82.5671V99.9445H83.9148V94.5384Z" fill="white"/>
<path fill-rule="evenodd" clip-rule="evenodd" d="M90.6413 97.4163C91.2592 97.131 91.5689 96.687 91.5689 96.0926C91.5689 95.2837 90.9105 94.5384 89.8007 94.5384H87.3829V99.9445H88.731V97.7489H89.1189C89.8486 97.7489 90.0625 98.7874 90.6413 99.9445H92.1237C91.3623 98.359 91.1953 97.6937 90.6413 97.4158V97.4163ZM89.4437 96.7588H88.7301V95.5299H89.4119C89.919 95.5299 90.1812 95.736 90.1812 96.14C90.1812 96.6001 89.8159 96.7588 89.4437 96.7588Z" fill="white"/>
<path fill-rule="evenodd" clip-rule="evenodd" d="M98.9769 99.945H94.9888V94.5384H98.9207V95.5299H96.3359V96.6631H98.802V97.6537H96.3359V98.9544H98.9769V99.945Z" fill="white"/>
</g>
<path fill-rule="evenodd" clip-rule="evenodd" d="M73.9859 58.784H75.9123L62.4463 77.0589H60.4453L73.9859 58.784V58.784ZM73.4411 54.1555V56.7311L60.4453 74.4217V71.8327L73.4411 54.1555V54.1555ZM71.1126 52.0818H72.9801L60.4453 69.1122V66.5269L71.1126 52.0818V52.0818ZM60.4453 61.2984L67.2216 52.0818L69.1254 52.0864L60.4453 63.8349V61.2989V61.2984Z" fill="white"/>
<path fill-rule="evenodd" clip-rule="evenodd" d="M81.7932 58.784H83.6405L70.1726 77.059H68.2996L81.7932 58.784V58.784ZM89.9189 55.291L73.9339 77.059H72.0645L89.0135 54.0869L89.9189 55.291ZM90.8699 56.5622L91.8486 57.8762L77.7172 77.059H75.771L90.8704 56.5622H90.8699ZM95.0126 58.784L81.5751 77.059H79.6588L93.0862 58.784H95.0131H95.0126Z" fill="white"/>
<path fill-rule="evenodd" clip-rule="evenodd" d="M66.4656 50.5114V48.1029H72.8338V41.5204H77.5502V48.1025H84.2252V52.5833V52.5838H77.5513L77.5507 59.32L64.4707 77.0594H66.3709L86.0537 50.3659L79.4931 41.5208H85.0962L88.8759 46.5672L92.5953 41.5208H98.2651L91.6659 50.4237L98.2651 59.3187H96.5672L83.5098 77.059H85.376L103.95 51.9153L103.949 30.6654H79.2834L60.4453 56.1454V58.7228L66.4656 50.5114ZM79.4931 41.5208H79.4928V41.5204L79.4931 41.5208Z" fill="white"/>
</g>
<defs>
<clipPath id="clip0_50_421">
<rect width="73.4573" height="74.3443" fill="white" transform="translate(30.4927 30.6653)"/>
</clipPath>
<clipPath id="clip1_50_421">
<rect width="63.5151" height="15.4743" fill="white" transform="translate(35.4617 84.5424)"/>
</clipPath>
</defs>
</svg>
