<svg width="11" height="11" viewBox="0 0 11 11" fill="none" xmlns="http://www.w3.org/2000/svg">
<path d="M11 5.50071C11 2.46712 8.53288 0 5.50071 0C2.46854 0 0 2.46712 0 5.50071C0 8.53431 2.46712 11.0014 5.50071 11.0014C8.53431 11.0014 11.0014 8.53431 11.0014 5.50071H11ZM8.43157 5.22247C8.41302 4.46621 8.31457 3.75561 8.15475 3.11493C8.64418 2.97367 9.09223 2.79245 9.4832 2.57556C10.0354 3.32469 10.3807 4.23505 10.4349 5.22247H8.43157ZM7.87508 5.22247H5.77611V3.4688C6.41393 3.45168 7.03178 3.37748 7.60825 3.25334C7.7595 3.85407 7.8551 4.52043 7.87508 5.22247ZM5.77611 2.91374V0.592165C6.46245 0.766247 7.06888 1.5753 7.45272 2.71968C6.92619 2.83098 6.36114 2.89804 5.77611 2.91374ZM5.22104 0.592165V2.91374C4.63601 2.89804 4.07096 2.83098 3.54443 2.71968C3.92827 1.5753 4.5347 0.766247 5.22104 0.592165ZM5.22104 3.4688V5.22247H3.12207C3.14204 4.52043 3.23622 3.85264 3.3889 3.25334C3.96537 3.37891 4.58321 3.45311 5.22104 3.4688ZM2.567 5.22247H0.563627C0.617849 4.23505 0.964587 3.32611 1.51537 2.57556C1.90634 2.79245 2.35439 2.97367 2.84382 3.11493C2.68258 3.75561 2.58555 4.46621 2.567 5.22247ZM2.567 5.77753C2.58555 6.53379 2.68401 7.24439 2.84382 7.88507C2.35439 8.02633 1.90634 8.20755 1.51537 8.42444C0.96316 7.67531 0.617849 6.76495 0.563627 5.77753H2.567ZM3.12349 5.77753H5.22247V7.5312C4.58464 7.54832 3.96679 7.62252 3.39032 7.74666C3.23907 7.14736 3.14347 6.47957 3.12492 5.77753H3.12349ZM5.22247 8.08626V10.4078C4.53613 10.2338 3.92969 9.4247 3.54586 8.28032C4.07238 8.16902 4.63744 8.10196 5.22247 8.08626ZM5.77753 10.4078V8.08626C6.36256 8.10196 6.92762 8.16902 7.45414 8.28032C7.07031 9.4247 6.46387 10.2338 5.77753 10.4078ZM5.77753 7.5312V5.77753H7.87651C7.85653 6.47957 7.76236 7.14736 7.6111 7.74666C7.03463 7.62109 6.41679 7.54689 5.77896 7.5312H5.77753ZM8.43157 5.77753H10.4349C10.3807 6.76352 10.034 7.67389 9.4832 8.42444C9.09223 8.20755 8.64418 8.02633 8.15475 7.88507C8.31599 7.24439 8.41302 6.53379 8.43157 5.77753ZM9.1222 2.13893C8.78973 2.31444 8.4116 2.46284 8.00065 2.5827C7.76236 1.85783 7.43702 1.24997 7.05033 0.806201C7.85082 1.0716 8.55999 1.53535 9.1222 2.13893ZM3.94967 0.806201C3.56155 1.24997 3.23622 1.85783 2.99935 2.5827C2.5884 2.46426 2.2117 2.31586 1.87923 2.13893C2.44001 1.53392 3.1506 1.07018 3.9511 0.806201H3.94967ZM1.87781 8.86107C2.21027 8.68556 2.5884 8.53716 2.99935 8.4173C3.23764 9.14217 3.56298 9.75003 3.94967 10.1938C3.14918 9.9284 2.44001 9.46465 1.87781 8.86107ZM7.05176 10.1938C7.43988 9.75003 7.76521 9.14217 8.00208 8.4173C8.41302 8.53574 8.78973 8.68414 9.1222 8.86107C8.56142 9.46608 7.85082 9.92982 7.05033 10.1938H7.05176Z" fill="white"/>
</svg>
