<svg width="136" height="135" viewBox="0 0 136 135" fill="none" xmlns="http://www.w3.org/2000/svg">
<g clip-path="url(#clip0_50_413)">
<path d="M65.7412 26.3352C64.9142 27.869 53.7666 48.5694 48.9647 57.4634C48.7983 57.7709 48.8111 57.9933 48.9737 58.2944C53.6783 67.0092 63.2129 84.6878 63.3115 84.853C63.41 84.6891 72.9446 67.0092 77.6492 58.2957C77.8118 57.9945 77.8259 57.7722 77.6582 57.4646C74.966 52.4948 72.2918 47.5147 69.5996 42.5448C69.4268 42.2271 69.4153 41.9895 69.5945 41.6693C70.3344 40.3452 71.0436 39.0045 71.7938 37.6143C71.9 37.7935 79.0344 51.0131 82.533 57.49C82.6802 57.762 82.693 57.9653 82.542 58.2461C77.0053 68.5023 71.4776 78.7636 65.9563 89.0287C65.809 89.3031 65.6593 89.4277 65.3239 89.4226C63.9567 89.3997 62.5882 89.4061 61.221 89.4188C60.9675 89.4213 60.8331 89.3413 60.714 89.1176C55.1645 78.8017 49.6099 68.4883 44.0489 58.1788C43.9337 57.964 43.9235 57.8039 44.0425 57.5815C49.6048 47.2694 55.1581 36.9548 60.7204 26.6465C60.7908 26.5169 60.956 26.3504 61.0789 26.3492C62.6048 26.3288 64.1308 26.3365 65.7412 26.3365V26.3352Z" fill="white"/>
<path d="M72.0639 32.6507C69.5189 37.3589 62.5037 50.3662 58.6798 57.4506C58.5173 57.753 58.5057 57.9754 58.6722 58.2817C61.3643 63.2528 64.0386 68.2316 66.7308 73.2015C66.9036 73.5204 66.9125 73.7568 66.7333 74.077C65.9934 75.4012 65.2842 76.7418 64.5327 78.1333C64.4329 77.9655 57.2998 64.7447 53.7935 58.255C53.6463 57.9831 53.6347 57.7797 53.7858 57.4989C59.3225 47.244 64.8502 36.9827 70.3715 26.7176C70.52 26.4419 70.6711 26.3199 71.0039 26.325C72.3711 26.3479 73.7396 26.3415 75.1068 26.3288C75.3616 26.3263 75.4934 26.4089 75.6138 26.6312C81.1633 36.9471 86.7191 47.2605 92.2789 57.5701C92.3954 57.7848 92.403 57.9462 92.284 58.1673C86.723 68.4769 81.1697 78.7902 75.6074 89.0998C75.537 89.2294 75.3718 89.3946 75.2489 89.3959C73.723 89.4162 72.197 89.4086 70.5981 89.4086C70.7031 89.2053 81.8558 68.4858 87.3643 58.2804C87.5308 57.9729 87.518 57.7505 87.3541 57.4493C82.6495 48.7358 73.1162 31.056 73.0176 30.892C72.9984 30.9225 72.6502 31.5668 72.0639 32.6507" fill="white"/>
<path d="M32.7669 107.796H30.4549V97.8184C30.4549 97.6913 30.4408 97.6087 30.4114 97.568C30.382 97.5274 30.3103 97.4841 30.1938 97.4384L29.5678 97.197L29.7585 96.1956H35.6024C37.1092 96.1956 38.1935 96.4803 38.854 97.0496C39.5146 97.6188 39.8449 98.5376 39.8449 99.8033C39.8449 100.805 39.6388 101.576 39.2278 102.116C38.8156 102.657 38.1756 103.008 37.3063 103.169L40.1585 107.796H37.602L35.011 103.429H32.7669V107.796ZM32.7669 101.703H35.34C36.1401 101.703 36.7111 101.559 37.0529 101.271C37.3947 100.984 37.5662 100.495 37.5662 99.8033C37.5662 99.112 37.3947 98.6405 37.0529 98.3533C36.7111 98.0662 36.1401 97.9213 35.34 97.9213H32.7669V101.702V101.703Z" fill="white"/>
<path d="M50.5739 96.1969V97.9582H44.4522V101.049H49.3219V102.74H44.4522V106.038H50.7121V107.799H42.1402V97.8209C42.1402 97.6938 42.1261 97.6112 42.0967 97.5706C42.0672 97.5299 41.9955 97.4867 41.879 97.441L41.2531 97.1995L41.4438 96.1982H50.5739V96.1969Z" fill="white"/>
<path d="M52.626 97.8184C52.626 97.6913 52.6119 97.6087 52.5825 97.568C52.553 97.5274 52.4814 97.4841 52.3649 97.4384L51.7389 97.197L51.9296 96.1956H54.5386C54.7127 96.1956 54.8253 96.2159 54.8778 96.2566C54.9303 96.2973 55.025 96.4091 55.1646 96.5934L61.1647 104.655V96.1969H63.3038V107.796H61.061L54.7664 99.3382V107.796H52.6273V97.8184H52.626Z" fill="white"/>
<path d="M71.5634 96.1969C71.7951 96.6112 72.0447 97.1093 72.311 97.69C72.5773 98.2708 72.8525 98.901 73.1367 99.5796C73.4209 100.259 73.7013 100.966 73.9803 101.703C74.2581 102.44 74.5218 103.171 74.7715 103.895C75.0211 104.619 75.2502 105.317 75.4589 105.984C75.6676 106.651 75.8417 107.256 75.9799 107.796H73.65C73.522 107.325 73.3889 106.864 73.2506 106.415C73.1111 105.966 72.978 105.523 72.8499 105.086H67.7024C67.5629 105.523 67.4272 105.966 67.2941 106.415C67.1609 106.864 67.0304 107.325 66.9023 107.796H64.5724C64.712 107.255 64.8861 106.651 65.0948 105.984C65.3034 105.317 65.5326 104.621 65.7822 103.895C66.0318 103.169 66.2955 102.439 66.5733 101.703C66.8511 100.967 67.1328 100.259 67.417 99.5796C67.7012 98.901 67.9764 98.2708 68.2427 97.69C68.5089 97.1093 68.7586 96.6112 68.9903 96.1969H71.5634V96.1969ZM70.2768 98.2339C69.5343 99.891 68.8623 101.612 68.2593 103.396H72.2944C71.6684 101.612 70.9963 99.891 70.2768 98.2339Z" fill="white"/>
<path d="M77.1462 97.8184C77.1462 97.6913 77.1308 97.6087 77.1026 97.568C77.0732 97.5274 77.0015 97.4841 76.885 97.4384L76.259 97.197L76.4497 96.1956H79.3019C79.4056 96.1956 79.4581 96.2528 79.4581 96.3684V103.083C79.4581 104.187 79.6962 104.982 80.1712 105.466C80.6461 105.949 81.4168 106.19 82.4844 106.19C83.5521 106.19 84.3368 105.949 84.8066 105.466C85.2764 104.983 85.5107 104.189 85.5107 103.083V96.1956H87.8239V103.256C87.8239 104.096 87.7228 104.815 87.5193 105.414C87.317 106.012 87.0008 106.504 86.572 106.889C86.1431 107.274 85.5888 107.556 84.9116 107.735C84.2344 107.914 83.4253 108.002 82.4857 108.002C81.5461 108.002 80.7383 107.913 80.0598 107.735C79.3813 107.557 78.8283 107.275 78.3994 106.889C77.9706 106.504 77.6544 106.012 77.4521 105.414C77.2486 104.815 77.1474 104.096 77.1474 103.256V97.8184H77.1462Z" fill="white"/>
<path d="M90.5006 97.8184C90.5006 97.6913 90.4866 97.6087 90.4571 97.568C90.4277 97.5274 90.356 97.4841 90.2395 97.4384L89.6135 97.197L89.8042 96.1956H92.6564C92.7601 96.1956 92.8126 96.2528 92.8126 96.3684V106.035H98.1509V107.796H90.4994V97.8184H90.5006Z" fill="white"/>
<path d="M100.656 97.9569H96.8657V96.1956H106.76V97.9569H102.969V107.796H100.656V97.9569V97.9569Z" fill="white"/>
</g>
<defs>
<clipPath id="clip0_50_413">
<rect width="77.1922" height="81.6784" fill="white" transform="translate(29.5678 26.325)"/>
</clipPath>
</defs>
</svg>
