<svg width="135" height="135" viewBox="0 0 135 135" fill="none" xmlns="http://www.w3.org/2000/svg">
<path fill-rule="evenodd" clip-rule="evenodd" d="M25.5656 43.1846C24.5236 43.2287 23.8484 43.7081 23.8484 44.7354V90.6138C23.8484 91.4112 24.4208 92.1353 25.3014 92.1353H107.2C107.934 92.1353 108.526 92.0717 108.869 91.0981C108.869 91.0981 117.171 65.1258 117.313 64.6562C117.621 63.668 117.425 63.1739 116.584 62.6406C89.9117 45.5524 50.0262 43.0672 31.9107 43.0672C29.313 43.0672 27.1653 43.1162 25.5656 43.1846ZM41.5403 72.0442L41.54 72.044C39.0716 70.8736 37.5033 70.1299 37.9426 68.8292C38.5248 67.1022 41.5481 66.4467 44.2877 66.5054C45.6722 66.5396 46.6555 66.7158 47.7807 66.975L48.7738 63.849C47.3453 63.5848 46.3277 63.4527 44.6204 63.4087C39.1265 63.2815 34.161 64.798 32.8891 68.0073C31.3725 71.8085 35.6629 73.9512 39.376 75.7124C42.3358 77.1115 44.6644 78.4422 43.8474 80.1887C43.2066 81.5389 41.1176 82.1798 38.0796 82.1113C35.4525 82.0526 32.1699 81.2943 29.582 79.993L28.0459 83.3245C29.944 84.2051 33.8675 85.4037 37.2137 85.4868C43.4952 85.6238 47.5654 84.0486 49.1945 80.6192C51.0873 76.6463 46.5126 74.4425 42.7061 72.6087L42.4972 72.508L42.5021 72.5031C42.169 72.3423 41.8477 72.1899 41.5403 72.0442ZM51.1905 78.315C51.1073 78.315 51.0535 78.2954 51.0242 78.2171L51.0144 78.2318C50.5545 76.8816 49.9968 75.9325 48.2357 74.6312L51.7433 63.7169H56.43C60.2556 68.4622 63.3866 74.2839 64.9031 78.7063L69.6828 63.7169H74.0563L72.5593 68.3986C72.5349 68.4769 72.5936 68.4965 72.6865 68.4965C72.7452 68.4965 72.848 68.4965 72.936 68.3986C75.9153 65.1894 80.5139 63.3695 85.8072 63.3695C87.5097 63.3695 89.2513 63.4674 90.6895 63.6826L89.5105 67.1365C88.3511 66.9848 87.0547 66.9114 85.8023 66.9114C79.8339 66.9114 75.3723 69.8027 74.6972 74.3817C74.4183 76.3092 74.8733 78.0312 76.0132 79.3668C77.5346 81.1426 80.2204 81.9352 83.5813 81.9352C85.137 81.9352 86.6291 81.7884 87.8374 81.4851L93.5221 63.7071H110.273L109.24 67.0044H97.3086L95.5817 72.3906H105.591L104.578 75.5705H94.569L91.9664 83.7746C90.9635 84.3078 86.952 85.4771 82.5001 85.4771C75.6267 85.4771 70.7737 82.1944 70.0154 77.317C70.0105 77.2485 69.942 77.224 69.8638 77.224C69.7855 77.224 69.7268 77.2387 69.7023 77.317L67.2171 85.0906H62.1831C60.5443 78.951 57.4867 73.144 54.3998 68.7313C54.3998 68.7313 51.3715 78.1095 51.3373 78.2171C51.3128 78.2905 51.2737 78.315 51.1905 78.315Z" fill="white"/>
</svg>
