<svg width="135" height="135" viewBox="0 0 135 135" fill="none" xmlns="http://www.w3.org/2000/svg">
<path d="M67.7654 27.675L67.0812 27.8162L42.714 33.0083L41.9551 33.1578V33.9226C41.9551 42.0641 40.0003 46.8362 37.9304 51.8902C37.4244 53.1184 36.915 54.3582 36.4339 55.6548C36.4249 55.676 36.4149 55.6966 36.4063 55.7179C34.973 59.3038 33.9455 63.4077 33.7772 68.952C33.776 68.9886 33.7747 69.0251 33.7736 69.0619C33.7683 69.2496 33.7635 69.4382 33.7602 69.6293C33.7551 69.8974 33.7521 70.1687 33.7515 70.4437C33.7514 70.4863 33.75 70.5269 33.75 70.5696C33.75 71.0654 33.7614 71.5521 33.7812 72.0309C33.7826 72.0645 33.783 72.0989 33.7845 72.1325C33.7845 72.133 33.7844 72.1334 33.7845 72.134C33.7958 72.3893 33.8099 72.6423 33.8265 72.8929C33.8266 72.8934 33.8265 72.8938 33.8265 72.8944C33.8432 73.145 33.8627 73.3929 33.8846 73.6388C33.8846 73.6394 33.8846 73.6398 33.8846 73.6403C33.8934 73.739 33.9044 73.8356 33.914 73.9335C33.9284 74.0801 33.9421 74.2275 33.9582 74.3724C33.9851 74.6136 34.0143 74.8527 34.046 75.0893C34.0594 75.1886 34.0751 75.2857 34.0892 75.3842C34.1362 75.7116 34.1871 76.0352 34.243 76.3536C34.2506 76.3966 34.2571 76.4406 34.2648 76.4835L34.2652 76.4853C34.306 76.7125 34.3491 76.9375 34.3943 77.1601C34.3944 77.1606 34.3946 77.161 34.3947 77.1616C34.4399 77.3843 34.4872 77.6048 34.5365 77.8229C34.5366 77.8235 34.5368 77.8239 34.5369 77.8244C34.5862 78.0426 34.6374 78.2584 34.6907 78.472C34.6908 78.4725 34.6909 78.4733 34.6911 78.4739C34.7444 78.6875 34.7998 78.8989 34.8569 79.108C34.857 79.1085 34.8571 79.1089 34.8572 79.1095C34.9143 79.3186 34.9732 79.5256 35.0339 79.7302L35.0343 79.7317C35.0949 79.9363 35.1574 80.1385 35.2214 80.3386C35.2216 80.3392 35.2217 80.3396 35.2218 80.3401C35.2859 80.5402 35.3518 80.738 35.4192 80.9336C35.4867 81.1299 35.5557 81.3237 35.6263 81.5156C35.6265 81.5161 35.6265 81.5166 35.6267 81.517C35.6971 81.7083 35.7693 81.8972 35.8425 82.0841C35.8427 82.0846 35.8427 82.0851 35.8429 82.0856C39.296 90.8889 45.849 94.833 46.2501 95.0653L66.8341 106.145L67.0642 106.266L67.7654 106.65L68.4667 106.266L68.6967 106.145L89.2807 95.0653C89.6818 94.833 96.2348 90.8889 99.6879 82.0856C99.688 82.0852 99.688 82.0846 99.6883 82.0841C99.7616 81.8972 99.8338 81.7083 99.9042 81.517C99.9043 81.5166 99.9043 81.5161 99.9046 81.5156C99.9752 81.3237 100.044 81.1299 100.112 80.9336C100.179 80.738 100.245 80.5402 100.309 80.3401C100.309 80.3396 100.309 80.3392 100.309 80.3386C100.374 80.1385 100.436 79.9363 100.497 79.7317C100.497 79.7312 100.497 79.7308 100.497 79.7302C100.558 79.5256 100.617 79.3186 100.674 79.1095C100.674 79.109 100.674 79.1086 100.674 79.108C100.731 78.8989 100.787 78.6875 100.84 78.4739C100.84 78.4733 100.84 78.4725 100.84 78.472C100.894 78.2584 100.945 78.0426 100.994 77.8244C100.994 77.8239 100.994 77.8235 100.995 77.8229C101.044 77.6048 101.091 77.3843 101.136 77.1616C101.136 77.1611 101.137 77.1607 101.137 77.1601C101.182 76.9375 101.225 76.7125 101.266 76.4853L101.266 76.4835C101.274 76.4406 101.281 76.3966 101.288 76.3536C101.344 76.0352 101.395 75.7116 101.442 75.3842C101.456 75.2857 101.472 75.1886 101.485 75.0893C101.517 74.8527 101.546 74.6136 101.573 74.3724C101.589 74.2275 101.603 74.0801 101.617 73.9335C101.627 73.8356 101.638 73.739 101.647 73.6403C101.647 73.6398 101.646 73.6394 101.647 73.6388C101.668 73.3929 101.688 73.145 101.705 72.8944C101.705 72.8939 101.705 72.8935 101.705 72.8929C101.721 72.6423 101.735 72.3893 101.747 72.134C101.747 72.1334 101.747 72.133 101.747 72.1325C101.748 72.0989 101.749 72.0645 101.75 72.0309C101.77 71.5521 101.781 71.0654 101.781 70.5696C101.781 70.5269 101.78 70.4863 101.78 70.4437C101.779 70.1687 101.776 69.8974 101.771 69.6293C101.768 69.4382 101.763 69.2496 101.757 69.0619C101.756 69.0251 101.755 68.9886 101.754 68.952C101.586 63.4077 100.558 59.3038 99.1248 55.7179C99.1162 55.6966 99.1061 55.676 99.0972 55.6548C98.616 54.3582 98.1067 53.1184 97.6007 51.8902C95.5308 46.8362 93.576 42.0641 93.576 33.9226V33.1578L92.817 33.0083L68.4496 27.8162L67.7654 27.675ZM67.7654 29.6058L68.1275 29.6849L91.6842 34.6986C91.8106 42.7424 93.8574 47.7561 95.8525 52.6031C97.9282 57.6628 99.8889 62.4352 99.8889 70.5711C99.8889 74.7846 99.0831 78.3667 97.8972 81.3566L97.8968 81.357C97.6178 82.0604 97.318 82.7311 97.0025 83.3694L97.0021 83.3698C95.9766 85.4447 94.7877 87.1788 93.6257 88.5899L93.6253 88.5903C93.089 89.2416 92.5583 89.8239 92.0523 90.3393C91.391 91.0128 90.7727 91.5704 90.2369 92.0186C90.2262 92.0276 90.2142 92.038 90.2035 92.0469L90.2031 92.0473C90.178 92.0682 90.1557 92.0857 90.1309 92.1061C89.6922 92.4687 89.3296 92.7408 89.0364 92.951C88.9888 92.9852 88.9253 93.0336 88.8822 93.0638L88.8818 93.0642C88.8299 93.1007 88.8045 93.1162 88.7596 93.1469C88.5255 93.3071 88.3662 93.4074 88.3547 93.4147C88.3835 93.3974 70.3181 102.936 67.7652 104.311C65.2124 102.936 47.147 93.3974 47.1758 93.4147C47.1643 93.4074 47.005 93.3071 46.7709 93.1469C46.726 93.1162 46.7006 93.1007 46.6486 93.0642L46.6483 93.0638C46.6052 93.0336 46.5417 92.9852 46.4941 92.951C46.201 92.7408 45.8383 92.4687 45.3996 92.1061C45.3749 92.0857 45.3525 92.0682 45.3274 92.0473L45.327 92.0469C45.3163 92.038 45.3044 92.0276 45.2936 92.0186C44.7578 91.5704 44.1396 91.0128 43.4783 90.3393C42.9722 89.8239 42.4416 89.2416 41.9052 88.5903L41.9049 88.5899C40.743 87.1788 39.554 85.4446 38.5285 83.3698L38.5282 83.3694C38.2127 82.731 37.9129 82.0604 37.6339 81.357L37.6335 81.3566C36.4476 78.3667 35.6418 74.7846 35.6418 70.5711C35.6418 62.4352 37.6025 57.6628 39.6782 52.6031C41.6733 47.7561 43.7201 42.7424 43.8466 34.6986L67.4033 29.6849L67.7654 29.6058Z" fill="white"/>
<path d="M77.662 39.7365L76.7271 40.3597C74.972 41.3472 73.0051 42.0065 71.2541 42.3913C70.3294 42.5906 69.4899 42.7262 68.8684 42.8125C68.2618 42.8968 67.8358 42.9347 67.8305 42.9355C67.8215 42.9345 67.4025 42.8969 66.7969 42.8125C66.1767 42.7261 65.3374 42.5906 64.4123 42.3913C62.5621 41.9928 60.3631 41.3191 58.9368 40.3605C58.6207 40.1527 58.3046 39.9447 57.9885 39.7368L57.5608 40.1642L57.1893 40.5353C56.425 41.0984 55.6936 41.7367 54.8918 41.849C54.4967 41.8861 54.1016 41.9234 53.7065 41.9607L53.6688 43.184C53.5583 44.0627 53.4377 44.8654 53.1195 45.5142C52.7567 46.2311 52.1681 46.8912 51.1678 47.339C51.1756 47.2255 51.1916 47.1378 51.1906 47.0125C51.1863 46.4321 51.0895 45.6711 50.571 45.0226C50.0354 44.3479 49.1661 44.0406 48.1962 44.0406C47.3235 44.0406 46.5228 44.3643 45.9916 44.9736L45.9897 44.9762L45.9876 44.9783C45.3108 45.7679 45.1427 46.7646 45.0915 47.5596C45.0659 47.9571 45.0756 48.31 45.0922 48.5739C45.1088 48.8378 45.1386 49.0582 45.1361 49.0386L45.1303 48.9465C45.1303 48.9513 45.1339 49.0001 45.1379 49.0437C45.1371 49.2604 45.1405 51.2017 46.5782 52.6338C47.4597 53.5153 48.7071 53.95 50.1338 53.95C52.6603 53.95 54.5332 52.2133 55.761 50.5609C56.8429 49.1048 57.3967 47.8045 57.5709 47.3778H63.771V90.2382L61.8724 92.7568L61.9798 96.7154L63.6827 96.2525L63.6856 96.2518C64.6696 95.9754 66.186 95.6408 67.7797 95.6408H67.8831C69.4706 95.6408 70.9939 95.9756 71.9771 96.2518L71.9796 96.2525L73.6702 96.7154L73.8033 92.7568L71.8918 90.2382V47.3778H78.0864C78.2617 47.8064 78.8154 49.105 79.8981 50.5612C81.1266 52.2135 82.9991 53.95 85.5231 53.95C86.9498 53.95 88.2014 53.5166 89.0842 52.6338L89.0849 52.6331L89.0857 52.6327C90.5514 51.16 90.5267 49.1991 90.5267 49.0096V48.9751V48.9646C90.5426 48.8593 90.5546 48.7792 90.568 48.5764C90.5856 48.3114 90.5958 47.9581 90.5706 47.5603C90.5201 46.7647 90.352 45.7679 89.6752 44.9783L89.6716 44.974L89.6676 44.9696C89.1348 44.3673 88.3393 44.0405 87.4666 44.0405C86.5009 44.0405 85.6283 44.345 85.0903 45.0237C84.5773 45.6696 84.4765 46.4251 84.4689 47.0041C84.4672 47.1359 84.4822 47.2229 84.4892 47.3368C83.4901 46.889 82.9027 46.2301 82.5411 45.5145C82.1074 44.6564 82.0045 43.723 81.9943 43.1884C81.9859 42.7789 81.9774 42.3694 81.9689 41.96L80.7656 41.8489C79.8579 41.7457 78.9115 40.9887 78.4793 40.5415L78.4728 40.5346C78.2025 40.2686 77.9322 40.0024 77.662 39.7365V39.7365Z" fill="white"/>
<path d="M77.662 39.7365L76.7271 40.3597C74.972 41.3472 73.0051 42.0065 71.2541 42.3913C70.3294 42.5906 69.4899 42.7262 68.8684 42.8125C68.2618 42.8968 67.8358 42.9347 67.8305 42.9355C67.8215 42.9345 67.4025 42.8969 66.7969 42.8125C66.1767 42.7261 65.3374 42.5906 64.4123 42.3913C62.5621 41.9928 60.3631 41.3191 58.9368 40.3605C58.6207 40.1527 58.3046 39.9447 57.9885 39.7368L57.5608 40.1642L57.1893 40.5353C56.425 41.0984 55.6936 41.7367 54.8918 41.849C54.4967 41.8861 54.1016 41.9234 53.7065 41.9607L53.6688 43.184C53.5583 44.0627 53.4377 44.8654 53.1195 45.5142C52.7567 46.2311 52.1681 46.8912 51.1678 47.339C51.1756 47.2255 51.1916 47.1378 51.1906 47.0125C51.1863 46.4321 51.0895 45.6711 50.571 45.0226C50.0354 44.3479 49.1661 44.0406 48.1962 44.0406C47.3235 44.0406 46.5228 44.3643 45.9916 44.9736L45.9897 44.9762L45.9876 44.9783C45.3108 45.7679 45.1427 46.7646 45.0915 47.5596C45.0659 47.9571 45.0756 48.31 45.0922 48.5739C45.1088 48.8378 45.1386 49.0582 45.1361 49.0386L45.1303 48.9465C45.1303 48.9513 45.1339 49.0001 45.1379 49.0437C45.1371 49.2604 45.1405 51.2017 46.5782 52.6338C47.4597 53.5153 48.7071 53.95 50.1338 53.95C52.6603 53.95 54.5332 52.2133 55.761 50.5609C56.8429 49.1048 57.3967 47.8045 57.5709 47.3778H63.771V90.2382L61.8724 92.7568L61.9798 96.7154L63.6827 96.2525L63.6856 96.2518C64.6696 95.9754 66.186 95.6408 67.7797 95.6408H67.8831C69.4706 95.6408 70.9939 95.9756 71.9771 96.2518L71.9796 96.2525L73.6702 96.7154L73.8033 92.7568L71.8918 90.2382V47.3778H78.0864C78.2617 47.8064 78.8154 49.105 79.8981 50.5612C81.1266 52.2135 82.9991 53.95 85.5231 53.95C86.9498 53.95 88.2014 53.5166 89.0842 52.6338L89.0849 52.6331L89.0857 52.6327C90.5514 51.16 90.5267 49.1991 90.5267 49.0096V48.9751V48.9646C90.5426 48.8593 90.5546 48.7792 90.568 48.5764C90.5856 48.3114 90.5958 47.9581 90.5706 47.5603C90.5201 46.7647 90.352 45.7679 89.6752 44.9783L89.6716 44.974L89.6676 44.9696C89.1348 44.3673 88.3393 44.0405 87.4666 44.0405C86.5009 44.0405 85.6283 44.345 85.0903 45.0237C84.5773 45.6696 84.4765 46.4251 84.4689 47.0041C84.4672 47.1359 84.4822 47.2229 84.4892 47.3368C83.4901 46.889 82.9027 46.2301 82.5411 45.5145C82.1074 44.6564 82.0045 43.723 81.9943 43.1884C81.9859 42.7789 81.9774 42.3694 81.9689 41.96L80.7656 41.8489C79.8579 41.7457 78.9115 40.9887 78.4793 40.5415L78.4728 40.5346C78.2025 40.2686 77.9322 40.0024 77.662 39.7365V39.7365Z" fill="white"/>
<path d="M71.1374 87.6532L72.4888 87.5324C75.9041 87.1185 84.5286 85.2671 90.7038 77.1601L90.9625 76.8151L90.7267 76.4414C89.617 74.6877 85.3564 68.8344 77.2206 67.374L77.169 67.3682H77.1059H72.4082H63.249H58.4457C57.0705 67.2861 54.396 66.2445 54.396 62.9469C54.396 61.4462 55.3044 60.2732 56.0691 59.5487H56.0503C58.1432 57.5823 60.5637 56.3231 63.8008 56.5071L67.797 56.8347L71.4134 57.2778C72.5893 57.9581 74.3908 59.0047 76.3436 60.0981C76.34 60.0974 76.3367 60.0974 76.3331 60.0966C76.5363 60.2106 76.747 60.3259 76.9535 60.4406C77.1571 60.5536 77.3549 60.6637 77.5608 60.7769C77.748 60.8798 77.933 60.9809 78.1213 61.0834C78.488 61.2831 78.8541 61.4799 79.2209 61.6751C79.3173 61.7264 79.4134 61.7788 79.5096 61.8297C79.9935 62.0854 80.471 62.3324 80.9419 62.5712C81.1719 62.6877 81.3992 62.8016 81.6239 62.9126C81.8142 63.0066 81.9996 63.096 82.1852 63.1854C82.3383 63.2591 82.4904 63.3318 82.6397 63.402C82.8072 63.4807 82.9717 63.5571 83.1339 63.6309C83.2678 63.6918 83.3965 63.7484 83.5264 63.8058C84.5295 64.2488 85.4123 64.5849 86.075 64.7414C86.0958 64.7464 86.1154 64.7505 86.1359 64.7552C86.2261 64.7754 86.3123 64.7923 86.3938 64.8056C86.4389 64.813 86.4832 64.8199 86.5255 64.8252C86.5601 64.8294 86.594 64.833 86.6267 64.8357C86.6907 64.8411 86.7516 64.8442 86.8081 64.8437C86.8144 64.8436 86.8223 64.8446 86.8285 64.8444C87.0027 64.8401 87.171 64.8231 87.3338 64.7951C87.4963 64.7671 87.6534 64.7281 87.8047 64.6794C87.8803 64.655 87.9543 64.6285 88.0271 64.5995L88.0275 64.5992C88.1002 64.5702 88.1719 64.5392 88.2419 64.5059L88.2423 64.5056C88.3122 64.4723 88.3807 64.4372 88.4479 64.4L88.4483 64.3996C88.5155 64.3624 88.5815 64.3233 88.646 64.2824L88.6464 64.2821C88.7109 64.2413 88.774 64.1988 88.8358 64.1547L88.8362 64.1544C88.8514 64.1435 88.8657 64.1317 88.8808 64.1206C89.0446 64.0004 89.199 63.8703 89.3433 63.7321C89.3475 63.7281 89.3519 63.7245 89.356 63.7205L89.3564 63.7201C89.4638 63.6166 89.5659 63.5089 89.6626 63.3987L89.663 63.3983C89.7596 63.2881 89.8508 63.1753 89.9369 63.0613L89.9372 63.0609C90.1094 62.8327 90.2604 62.5994 90.3907 62.3727L90.3911 62.3723C90.4562 62.259 90.5162 62.1473 90.571 62.0386L90.5714 62.0382C90.6262 61.9295 90.6756 61.8239 90.7201 61.7226L90.7205 61.7222C90.7651 61.621 90.8043 61.5241 90.8388 61.4331L90.8392 61.4327C90.8736 61.3417 90.9029 61.2564 90.9273 61.1784C90.9763 61.022 91.0054 60.8947 91.0147 60.8076V60.8058L91.0202 60.7677V60.739C91.0202 58.7496 90.1116 56.6334 87.5473 56.6334C85.5479 56.6334 84.5243 57.946 84.0852 59.1605C83.9323 59.4045 83.8682 59.7384 83.8342 60.2068C83.8338 60.2096 83.8334 60.2127 83.833 60.2155C83.833 60.2155 83.8118 60.4266 83.7895 60.6458C83.7849 60.6723 83.7817 60.6964 83.7761 60.7241L83.344 60.4513C83.2924 60.4184 83.2429 60.3843 83.1924 60.3508C83.1103 60.2956 83.0279 60.2405 82.9486 60.184C82.9198 60.1636 82.891 60.1432 82.8626 60.1226C82.7347 60.0296 82.6098 59.9354 82.4893 59.8393C82.4746 59.8276 82.4607 59.8155 82.4461 59.8038C82.3571 59.732 82.2714 59.659 82.1864 59.5857C79.9523 57.6415 79.1288 55.1128 78.8306 53.6665L78.7272 53.1608H55.0787L54.9177 53.2584C53.1644 54.4282 50.608 56.3306 48.4615 58.3468H48.4554C48.3538 58.4427 48.2583 58.5396 48.1586 58.636C48.0738 58.7176 47.9901 58.7993 47.9068 58.8812C47.3775 59.4038 46.8795 59.9292 46.4383 60.4488C45.3115 61.7733 44.5382 63.0555 44.4647 64.1198L44.4589 64.2402L44.4992 64.3553C44.663 64.8607 45.7778 67.7474 50.1017 70.1631C50.126 70.1767 50.1508 70.1901 50.1753 70.2037C50.3755 70.3143 50.5824 70.4237 50.7964 70.532C50.8991 70.5841 51.0014 70.6365 51.1073 70.688C51.2081 70.7369 51.3116 70.7849 51.4153 70.8331C51.4702 70.8587 51.5228 70.8847 51.5786 70.91L51.5818 70.9082C54.3162 72.1504 58.0655 73.1655 63.2087 73.4916C63.2317 73.4916 72.3908 73.7677 72.3908 73.7677C74.9897 74.0896 76.9678 74.7968 78.043 75.8145C78.7502 76.4872 79.1009 77.2693 79.1009 78.1835C79.1009 79.3507 78.6868 80.3511 77.8761 81.1503C76.3639 82.651 73.7653 83.1053 72.3451 83.249C72.3451 83.249 71.4044 83.5576 71.0536 83.4829C67.6061 83.6869 66.6601 83.4439 64.5023 83.1455C64.1458 83.1455 63.3984 82.9387 63.3984 82.9387C57.8672 81.4898 53.8423 77.2119 51.1802 74.3715C49.139 72.2096 48.0926 71.1864 47.2646 71.1576C45.2752 71.1116 44.4992 72.8421 44.3555 73.8771C43.999 76.2977 47.995 78.2009 48.041 78.2181C48.1215 78.2584 48.2076 78.2987 48.2996 78.3389C48.2421 78.4942 48.2021 78.6205 48.2021 78.6205C47.9548 79.3334 47.943 80.9146 49.4609 82.3807C51.4446 84.2896 54.5382 84.0426 54.6647 84.0368C54.6647 84.0368 54.722 84.0252 54.7909 84.0252L54.9001 84.1C56.8378 85.7156 61.3055 86.676 63.1339 87.0095L64.5861 87.3123L71.1374 87.6532ZM76.3331 60.0967C76.332 60.0961 76.3309 60.0954 76.3298 60.0948L76.324 60.0952C76.3272 60.0958 76.33 60.0961 76.3331 60.0967V60.0967Z" fill="white"/>
<path d="M63.7709 47.3778V60.5189H71.8917V47.3778L63.7709 47.3778Z" fill="white"/>
<path d="M63.7709 80.812V93.9532H71.8917V80.812L63.7709 80.812Z" fill="white"/>
</svg>
