<svg width="136" height="135" viewBox="0 0 136 135" fill="none" xmlns="http://www.w3.org/2000/svg">
<path fill-rule="evenodd" clip-rule="evenodd" d="M75.2371 96.6582C76.7217 95.7934 77.9151 94.5181 78.6864 92.9886L97.1402 60.5181C98.9969 57.6266 99.0779 54.0304 97.4093 51.135L92.3319 42.1797C90.7529 39.4341 87.8279 37.7217 84.6884 37.7217C83.1319 37.7217 81.6111 38.1274 80.2654 38.9106C76.0674 41.3784 74.6226 46.8828 77.0536 51.153L85.3251 65.6809C86.3298 67.4425 86.5945 69.5234 86.0651 71.4998C85.5402 73.4933 84.2935 75.1645 82.5398 76.1928C81.396 76.8626 80.0859 77.2262 78.7585 77.2262C76.0489 77.2223 73.5239 75.7418 72.1737 73.3617L54.4555 42.2159C52.8859 39.448 49.952 37.7497 46.8031 37.7497C45.2783 37.7497 43.7621 38.1454 42.4253 38.9106C40.3889 40.1078 38.9265 42.0473 38.3209 44.3379C37.6976 46.6406 38.0074 49.0722 39.1866 51.135L63.2111 93.357C64.7905 96.1299 67.7154 97.8373 70.8637 97.8373C72.3889 97.8373 73.9141 97.4406 75.2371 96.6582" fill="white"/>
</svg>
